<?xml version="1.0" encoding="UTF-8" standalone="no"?>
<!-- Created with Inkscape (http://www.inkscape.org/) -->

<svg
   width="37.098728mm"
   height="37.183327mm"
   viewBox="0 0 37.098728 37.183327"
   version="1.1"
   id="svg1"
   xmlns="http://www.w3.org/2000/svg"
   xmlns:svg="http://www.w3.org/2000/svg">
  <defs
     id="defs1">
    <clipPath
       clipPathUnits="userSpaceOnUse"
       id="clipPath2621">
      <path
         d="M 0,0 H 171 V 255 H 0 Z"
         id="path2621" />
    </clipPath>
    <clipPath
       clipPathUnits="userSpaceOnUse"
       id="clipPath2622">
      <path
         d="M 0,0 H 171 V 255 H 0 Z"
         id="path2622" />
    </clipPath>
    <clipPath
       clipPathUnits="userSpaceOnUse"
       id="clipPath2623">
      <path
         d="M 0,0 H 171 V 255 H 0 Z"
         id="path2623" />
    </clipPath>
    <clipPath
       clipPathUnits="userSpaceOnUse"
       id="clipPath2624">
      <path
         d="M 0,0 H 171 V 255 H 0 Z"
         id="path2624" />
    </clipPath>
    <clipPath
       clipPathUnits="userSpaceOnUse"
       id="clipPath2625">
      <path
         d="M 0,0 H 171 V 255 H 0 Z"
         id="path2625" />
    </clipPath>
    <clipPath
       clipPathUnits="userSpaceOnUse"
       id="clipPath2626">
      <path
         d="M 0,0 H 171 V 255 H 0 Z"
         id="path2626" />
    </clipPath>
    <clipPath
       clipPathUnits="userSpaceOnUse"
       id="clipPath2627">
      <path
         d="M 0,0 H 171 V 255 H 0 Z"
         id="path2627" />
    </clipPath>
    <clipPath
       clipPathUnits="userSpaceOnUse"
       id="clipPath2628">
      <path
         d="M 0,0 H 171 V 255 H 0 Z"
         id="path2628" />
    </clipPath>
    <clipPath
       clipPathUnits="userSpaceOnUse"
       id="clipPath2629">
      <path
         d="M 0,0 H 171 V 255 H 0 Z"
         id="path2629" />
    </clipPath>
    <clipPath
       clipPathUnits="userSpaceOnUse"
       id="clipPath2630">
      <path
         d="M 0,0 H 171 V 255 H 0 Z"
         id="path2630" />
    </clipPath>
    <clipPath
       clipPathUnits="userSpaceOnUse"
       id="clipPath2631">
      <path
         d="M 0,0 H 171 V 255 H 0 Z"
         id="path2631" />
    </clipPath>
    <clipPath
       clipPathUnits="userSpaceOnUse"
       id="clipPath2632">
      <path
         d="M 0,0 H 171 V 255 H 0 Z"
         id="path2632" />
    </clipPath>
    <clipPath
       clipPathUnits="userSpaceOnUse"
       id="clipPath2633">
      <path
         d="M 0,0 H 171 V 255 H 0 Z"
         id="path2633" />
    </clipPath>
    <clipPath
       clipPathUnits="userSpaceOnUse"
       id="clipPath2634">
      <path
         d="M 0,0 H 171 V 255 H 0 Z"
         id="path2634" />
    </clipPath>
    <clipPath
       clipPathUnits="userSpaceOnUse"
       id="clipPath2635">
      <path
         d="M 0,0 H 171 V 255 H 0 Z"
         id="path2635" />
    </clipPath>
    <linearGradient
       x1="278.43262"
       y1="124.74088"
       x2="239.98047"
       y2="144.38394"
       gradientUnits="userSpaceOnUse"
       gradientTransform="matrix(3.7961772,0,0,3.7795279,-948.88199,-313.23949)"
       spreadMethod="pad"
       id="linearGradient2641">
      <stop
         style="stop-opacity:1;stop-color:#aa8800"
         offset="0"
         id="stop2635" />
      <stop
         style="stop-opacity:1;stop-color:#e9ba00"
         offset="0.0931312"
         id="stop2636" />
      <stop
         style="stop-opacity:1;stop-color:#fff6d4"
         offset="0.169957"
         id="stop2637" />
      <stop
         style="stop-opacity:1;stop-color:#aa8800"
         offset="0.32355"
         id="stop2638" />
      <stop
         style="stop-opacity:1;stop-color:#ffcd02"
         offset="0.861397"
         id="stop2639" />
      <stop
         style="stop-opacity:1;stop-color:#fff3c5"
         offset="0.944282"
         id="stop2640" />
      <stop
         style="stop-opacity:1;stop-color:#aa8800"
         offset="1"
         id="stop2641" />
    </linearGradient>
  </defs>
  <g
     id="layer1"
     transform="translate(-37.338643,-132.55622)">
    <g
       clip-path="none"
       id="g2657"
       style="display:inline"
       transform="matrix(0.26458333,0,0,0.26458333,47.889583,100.78438)"
       mask="none">
      <g
         id="g1">
        <path
           d="m 27.973,110.852 c -0.078,-0.067 -0.235,-0.211 -0.235,-0.211 -0.097,-0.075 -0.183,-0.153 -0.265,-0.231 -0.45,-0.363 -0.899,-0.711 -1.442,-1.039 -0.738,-0.437 -1.488,-0.723 -2.269,-0.801 -0.117,-0.011 -0.328,-0.031 -0.328,-0.031 -0.098,-0.008 -0.207,-0.008 -0.336,0 -0.789,0.035 -1.621,0.289 -2.536,0.731 -0.687,0.316 -1.292,0.668 -2.07,1.097 -0.144,0.086 -0.281,0.172 -0.406,0.254 -0.148,0.082 -0.297,0.16 -0.449,0.234 0.097,0.086 0.207,0.168 0.32,0.243 0.117,0.074 0.246,0.152 0.387,0.23 0.601,0.313 1.211,0.5 1.761,0.543 0.122,0.008 0.235,0.008 0.333,0 0.476,-0.019 1.066,-0.238 1.828,-0.66 0.121,-0.078 0.257,-0.168 0.406,-0.262 0.156,-0.109 0.34,-0.23 0.551,-0.351 -0.207,0.105 -0.422,0.203 -0.645,0.293 -0.453,0.199 -0.773,0.293 -0.969,0.281 -0.726,-0.043 -1.379,-0.356 -1.882,-0.899 -0.028,-0.066 -0.039,-0.132 -0.043,-0.199 -0.024,-0.066 -0.047,-0.133 -0.071,-0.195 0.219,-0.109 0.41,-0.176 0.578,-0.191 0.528,-0.126 1.043,-0.184 1.559,-0.168 0.363,0.015 0.809,0.097 1.34,0.257 0.504,0.161 0.992,0.36 1.461,0.594 0.703,0.332 1.168,0.731 1.429,1.16 0.075,0.145 0.149,0.321 0.231,0.535 0.652,-0.425 1.293,-0.843 1.762,-1.214 z m -1.067,8.652 c 0.035,-0.031 -0.019,-0.043 -0.152,-0.078 -0.141,-0.028 -0.285,-0.047 -0.43,-0.043 -0.148,0 -0.398,0.058 -0.746,0.137 -0.105,0.035 -0.281,0.07 -0.5,0.089 0.52,-0.304 1.75,-1.066 1.75,-1.066 0.418,-1.891 0.844,-6.094 0.844,-6.094 -0.926,0.52 -2.91,1.563 -2.91,1.563 -0.426,2.164 -0.489,6.05 -0.489,6.05 -0.003,0.043 -0.191,0.243 -0.531,0.571 -0.297,0.316 -0.496,0.457 -0.621,0.449 -0.363,0.059 -0.769,-0.219 -1.461,-0.969 -0.488,-0.562 -0.941,-1.258 -1.172,-1.914 -0.031,-0.054 -0.058,-0.14 -0.082,-0.258 -0.082,-0.406 -0.004,-0.847 0.289,-1.363 0.696,-1.262 1.231,-2.051 1.301,-2.433 0.008,-0.043 0.016,-0.129 0.016,-0.129 0.058,-0.461 -0.219,-0.922 -0.883,-1.403 -0.168,-0.09 -0.5,-0.269 -0.5,-0.269 -0.688,0.433 -2.02,1.215 -2.02,1.215 0.196,0.113 0.364,0.218 0.508,0.324 0.145,0.101 0.262,0.195 0.356,0.273 0.593,0.485 0.867,0.969 0.89,1.465 0,0.024 0.004,0.102 0.004,0.102 0.004,0.035 -0.008,0.082 -0.023,0.148 0.015,0.277 -0.375,0.938 -0.918,1.848 -0.262,0.386 -0.281,0.761 -0.11,1.199 0.227,0.57 0.758,1.289 1.297,1.988 0.356,0.465 0.809,1.035 1.153,1.395 0.269,0.289 0.394,0.39 0.441,0.39 -0.023,0 0.129,-0.203 0.457,-0.664 0.328,-0.519 0.641,-0.812 1.004,-0.918 0.316,-0.097 0.613,-0.066 0.84,0.051 0.152,0.137 0.23,0.262 0.211,0.383 0.808,-0.746 1.379,-1.297 2.187,-2.043 z"
           style="fill:#800000;fill-opacity:1;fill-rule:nonzero;stroke:none"
           transform="scale(1.3333333)"
           clip-path="url(#clipPath2621)"
           id="path2642" />
        <path
           d="m 23.266,124.371 c -0.09,-0.117 -0.18,-0.23 -0.278,-0.344 -0.117,-0.125 -0.226,-0.238 -0.328,-0.343 -0.566,-0.532 -1.203,-0.957 -1.84,-1.274 -0.867,-0.433 -1.699,-0.656 -2.371,-0.742 -0.109,-0.012 -0.203,-0.023 -0.289,-0.031 -0.082,-0.008 -0.176,-0.012 -0.277,-0.016 -0.625,-0.016 -1.184,0.078 -1.824,0.344 -0.454,0.183 -0.993,0.469 -1.692,0.91 -0.137,0.09 -0.277,0.184 -0.406,0.277 -0.152,0.098 -0.305,0.203 -0.465,0.309 0.039,0.055 0.082,0.101 0.133,0.144 0.055,0.047 0.117,0.09 0.191,0.137 0.325,0.192 0.727,0.285 1.211,0.246 0.106,-0.008 0.207,-0.023 0.301,-0.05 0.457,-0.086 1.086,-0.387 1.906,-0.786 0.133,-0.07 0.274,-0.144 0.426,-0.222 0.164,-0.09 0.344,-0.176 0.547,-0.258 -0.195,0.07 -0.402,0.14 -0.617,0.211 -0.449,0.156 -0.754,0.258 -0.93,0.254 -0.664,0 -1.019,-0.223 -1.312,-0.543 -0.004,-0.039 0,-0.082 0.007,-0.121 -0.004,-0.035 -0.015,-0.071 -0.027,-0.106 0.18,-0.09 0.328,-0.148 0.457,-0.176 0.406,-0.125 0.805,-0.195 1.207,-0.203 0.285,-0.004 0.664,0.032 1.117,0.145 0.438,0.113 0.883,0.281 1.325,0.515 0.667,0.348 1.132,0.797 1.304,1.297 0.039,0.164 0.067,0.371 0.067,0.629 0.836,-0.226 1.632,-0.289 2.457,-0.203 z m -6.008,11.844 c 0.304,-0.906 0.804,-4.188 2.164,-6.699 1.426,-2.625 2.609,-3.801 2.609,-3.801 -1.176,0.039 -3.5,0.89 -3.5,0.89 -0.812,1.524 -1.629,3.356 -2.144,5.52 -0.457,1.926 -0.504,3.051 -0.504,3.051 -0.203,-0.153 -0.367,-0.278 -0.461,-0.34 -0.168,-0.141 -0.324,-0.254 -0.469,-0.344 -0.141,-0.109 -0.273,-0.203 -0.402,-0.277 -0.125,-0.094 -0.266,-0.168 -0.426,-0.215 -0.133,-0.074 -0.297,-0.16 -0.504,-0.25 -0.715,-0.262 -1.07,-0.414 -1.062,-0.441 0.156,-1.071 0.433,-2.317 0.918,-3.719 0.441,-1.266 0.894,-2.199 0.894,-2.199 0.199,-0.43 0.34,-0.786 0.426,-1.082 0.109,-0.297 0.148,-0.579 0.121,-0.848 -0.078,-0.285 -0.328,-0.527 -0.707,-0.711 -0.078,-0.031 -0.172,-0.051 -0.281,-0.055 -0.094,-0.027 -0.211,-0.054 -0.34,-0.074 -0.774,0.629 -2.367,2.113 -2.367,2.113 0.078,0.012 0.199,0.016 0.363,0.016 0.164,0 0.273,0.09 0.328,0.281 0.047,0.164 -0.004,0.395 -0.152,0.699 -0.524,1.075 -1.024,2.321 -1.371,3.696 -0.317,1.246 -0.399,2.152 -0.399,2.152 -0.109,0.067 -0.172,0.113 -0.195,0.145 -0.309,0.191 -0.582,0.441 -0.789,0.718 -0.129,0.153 -0.27,0.414 -0.336,0.723 -0.024,0.082 -0.047,0.215 -0.043,0.379 0.051,0.113 0.101,0.223 0.148,0.328 0.043,0.086 0.086,0.168 0.125,0.25 0.102,0.191 0.203,0.379 0.274,0.516 0.094,0.148 0.164,0.265 0.234,0.383 0.152,0.285 0.445,0.878 0.559,1.218 0.011,0.032 0.019,0.071 0.027,0.11 0.012,0.039 0.024,0.078 0.035,0.117 0.489,-0.18 2.231,-1.133 2.231,-1.133 0.035,-0.352 0.09,-1.93 0.09,-1.93 0.21,0.075 0.386,0.141 0.527,0.2 0.168,0.054 0.309,0.109 0.422,0.168 0.656,0.261 1.086,0.488 1.336,0.699 0.191,0.164 0.351,0.363 0.441,0.519 0.11,0.145 0.156,0.207 0.117,0.196 0.926,-0.282 1.567,-0.586 2.063,-0.969 z M 9.93,135.973 c -0.075,-0.098 -0.141,-0.188 -0.2,-0.27 -0.035,-0.082 -0.074,-0.144 -0.109,-0.183 -0.254,-0.34 -0.402,-0.536 -0.496,-0.582 0,-0.047 -0.004,-0.141 -0.004,-0.141 0.059,-0.027 0.129,-0.043 0.215,-0.051 0.082,-0.031 0.191,-0.051 0.34,-0.07 0.168,-0.016 0.258,-0.004 0.258,0.047 -0.02,0.449 -0.016,0.867 -0.004,1.25 z"
           style="fill:#800000;fill-opacity:1;fill-rule:nonzero;stroke:none"
           transform="scale(1.3333333)"
           clip-path="url(#clipPath2622)"
           id="path2643" />
        <path
           d="m 31.434,164.695 c 1.894,-2.718 4.961,-5.558 5.656,-8.906 0.621,-2.996 -1.063,-5.492 -1.063,-5.492 -0.324,-0.57 -0.683,-1.086 -0.961,-1.453 -0.312,-0.414 -0.707,-0.895 -1.203,-1.414 -0.644,-0.653 -1.734,-1.575 -3.383,-2.383 -0.394,-0.207 -1.425,-0.742 -2.039,-0.774 -0.609,-0.027 -3.019,2.129 -5.496,2.196 -2.254,-0.039 -2.562,-1.692 -3.89,-1.989 -0.813,-0.179 -6.489,0.09 -8.961,2.672 -1.422,1.465 -1.961,4.078 -1.965,5.821 -0.004,1.136 0.367,2.347 1.25,3.437 0.769,0.977 1.828,1.801 3.199,2.469 -0.098,0.695 -0.109,2.035 -0.109,2.035 0.117,1.477 0.758,2.867 1.519,4.098 0.168,0.277 0.442,0.73 0.442,0.73 0.152,0.207 0.32,0.434 0.547,0.738 0.996,1.34 2.043,2.52 3.148,3.258 0.969,0.7 1.445,0.86 1.512,0.598 0.301,-0.797 0.472,-1.641 0.699,-2.777 0.203,-1 0.41,-1.84 0.41,-1.84 -0.555,-0.184 -1.105,-0.407 -1.664,-0.66 -0.559,-0.258 -1.113,-0.493 -1.66,-0.707 -1.234,-0.872 -2.539,-2.356 -3.531,-4.231 -0.489,-0.926 -0.524,-1.949 0.3,-2.914 2.067,-2.402 4.918,-4.055 5.774,-5.422 0.23,-0.43 0.344,-0.762 0.328,-1.015 -0.059,-0.887 -0.883,-1.684 -2.277,-2.332 -0.317,-0.184 -0.961,-0.407 -1.797,-0.606 -0.973,0.492 -1.973,1.106 -2.883,1.879 -0.828,0.699 -1.32,1.328 -1.32,1.328 0.945,0.117 1.851,0.332 2.523,1.031 0.617,0.703 1.32,2.512 0.367,2.258 -0.953,-0.254 -0.886,-0.449 -1.511,-0.719 -0.563,-0.277 -1.551,-0.785 -1.551,-0.785 -2.266,-1.508 -1.524,-3.933 0.703,-5.457 2.141,-1.844 4.754,0.461 7.75,0.602 1.66,0.074 4.082,0.121 5.855,-0.383 1.75,-0.754 2.606,0.559 3.489,2.355 1.64,3.34 0.031,5.297 -1.45,10.801 -0.73,2.719 -1.136,3.891 -1.519,5.711 -0.293,1.399 -0.328,2.203 -0.328,2.203 1.496,-1.711 2.879,-2.742 5.09,-3.961 z"
           style="fill:#800000;fill-opacity:1;fill-rule:nonzero;stroke:none"
           transform="scale(1.3333333)"
           clip-path="url(#clipPath2623)"
           id="path2644" />
        <path
           d="m 32.191,172.367 c -0.187,-0.051 -0.382,-0.101 -0.574,-0.148 -0.215,-0.039 -0.418,-0.082 -0.609,-0.129 -0.953,-0.16 -1.887,-0.238 -2.762,-0.301 -1.066,-0.074 -2.555,-0.144 -3.648,-0.172 -0.188,-0.004 -0.532,-0.019 -0.532,-0.019 -0.16,-0.008 -0.339,-0.012 -0.546,-0.008 -1.239,-0.012 -2.754,0.043 -4.446,0.23 -1.211,0.121 -2.734,0.328 -4.273,0.664 -0.309,0.075 -0.594,0.153 -0.856,0.239 -0.304,0.078 -0.605,0.156 -0.894,0.242 0.148,0.129 0.32,0.254 0.508,0.367 0.187,0.113 0.41,0.234 0.668,0.356 1.085,0.5 2.378,0.824 3.652,0.964 0.277,0.032 0.535,0.051 0.769,0.055 1.071,0.059 2.551,-0.086 4.04,-0.473 0.234,-0.074 0.492,-0.156 0.765,-0.25 0.285,-0.113 0.586,-0.226 0.942,-0.359 -0.344,0.113 -0.731,0.215 -1.157,0.297 -0.855,0.187 -1.558,0.25 -1.976,0.215 -1.61,-0.133 -3.02,-0.602 -3.957,-1.403 -0.039,-0.086 -0.055,-0.172 -0.047,-0.25 -0.039,-0.089 -0.074,-0.175 -0.113,-0.265 0.457,-0.059 0.843,-0.071 1.175,-0.031 1.047,0.027 2.063,0.113 3.012,0.23 0.703,0.086 1.492,0.227 2.504,0.394 0.969,0.165 1.855,0.297 2.82,0.434 1.422,0.188 2.504,0.399 3.446,0.789 0.277,0.129 0.613,0.309 0.992,0.524 0.633,-0.684 0.949,-1.414 1.097,-2.192 z m -0.648,11.715 c 1.129,-1.297 2.664,-2.68 3.285,-4.301 0.567,-1.476 0.117,-2.746 0.117,-2.746 -0.082,-0.297 -0.203,-0.527 -0.332,-0.683 -0.136,-0.18 -0.336,-0.356 -0.601,-0.532 -0.387,-0.199 -1.051,-0.336 -2.207,-0.445 -0.293,-0.039 -0.774,-0.063 -1.555,-0.09 -0.16,0.168 -0.332,0.305 -0.492,0.41 -0.164,0.106 -0.34,0.2 -0.524,0.285 -0.863,0.45 -1.945,0.672 -3.023,0.68 -0.895,0.008 -2.02,-0.195 -3.168,-0.625 -0.289,-0.094 -0.543,-0.191 -0.762,-0.289 -0.219,-0.113 -0.429,-0.219 -0.636,-0.316 -0.329,-0.106 -1.469,-0.008 -3.524,0.242 -2.289,0.277 -4.176,0.633 -5.547,1.187 -1.726,0.657 -2.172,1.465 -1.918,2.262 0.156,0.5 0.715,1.012 1.75,1.5 0.895,0.43 2.032,0.809 3.399,1.133 -0.383,0.195 -0.969,0.601 -0.969,0.601 -0.5,0.473 -0.348,1.004 0.09,1.477 0.097,0.106 0.258,0.281 0.258,0.281 0.101,0.075 0.234,0.164 0.402,0.278 0.773,0.523 1.769,0.945 2.984,1.261 1.051,0.297 1.555,0.387 1.61,0.274 0.461,-0.578 1.777,-1.653 1.777,-1.653 -0.48,-0.082 -0.961,-0.175 -1.437,-0.281 -0.473,-0.105 -0.965,-0.203 -1.454,-0.297 -1.007,-0.332 -1.836,-0.843 -2.234,-1.468 -0.203,-0.317 0.156,-0.594 1.297,-0.825 2.992,-0.593 5.109,-1.043 5.957,-1.605 0.215,-0.16 0.328,-0.289 0.34,-0.387 0.035,-0.348 -0.504,-0.66 -1.629,-0.976 -0.266,-0.09 -0.789,-0.204 -1.586,-0.352 -1.441,0.363 -4.149,1.07 -4.149,1.07 0.192,0.028 0.352,0.055 0.481,0.078 0.125,0.024 0.254,0.047 0.387,0.071 0.906,0.148 1.468,0.301 1.675,0.476 0.274,0.161 0.415,0.332 0.43,0.516 0.016,0.133 -0.004,0.223 -0.062,0.269 -0.059,0.016 -0.086,0.047 -0.078,0.098 -0.524,-0.148 -1.083,-0.293 -1.665,-0.437 -0.523,-0.137 -1.039,-0.282 -1.55,-0.426 -2.129,-0.723 -3.102,-1.305 -3.242,-1.676 -0.051,-0.019 -0.079,-0.078 -0.067,-0.168 0.027,-0.32 0.422,-0.719 1.297,-1.172 0.144,-0.078 0.301,-0.164 0.461,-0.261 0.226,-0.106 0.488,-0.219 0.789,-0.336 0.301,0.136 0.555,0.261 0.762,0.367 0.273,0.097 0.531,0.172 0.769,0.226 1.313,0.422 2.543,0.668 3.446,0.758 1.246,0.09 2.777,0.031 4.382,-0.215 0.321,-0.066 0.668,-0.125 1.039,-0.175 0.372,-0.071 0.7,-0.145 0.993,-0.219 0.601,0.035 1.07,0.078 1.425,0.136 0.993,0.149 1.485,0.309 1.512,0.5 0.234,1.735 -0.234,3.137 -1.531,5.09 -1.106,1.66 -1.891,3.075 -1.891,3.075 1.418,-0.547 3.141,-1.09 4.719,-1.645 z"
           style="fill:#aa8800;fill-opacity:0.937255;fill-rule:nonzero;stroke:none"
           transform="scale(1.3333333)"
           clip-path="url(#clipPath2624)"
           id="path2645" />
        <path
           d="m 23.359,99.562 c -0.07,-0.003 -0.125,0.051 -0.121,0.122 v 2.949 c 0,0.047 0.028,0.086 0.071,0.105 h 0.003 l -0.207,0.098 c -0.093,0.043 -0.093,0.18 0.004,0.219 l 0.188,0.082 -0.242,0.113 c -0.102,0.047 -0.09,0.195 0.019,0.227 l 0.391,0.113 c -0.074,0.039 -0.145,0.062 -0.219,0.098 -0.098,-0.051 -0.199,-0.11 -0.289,-0.137 -0.086,-0.031 -0.168,-0.051 -0.258,-0.024 -0.09,0.024 -0.156,0.118 -0.168,0.211 -0.011,0.082 -0.008,0.153 0.024,0.215 0.027,0.067 0.093,0.117 0.156,0.133 0.129,0.031 0.242,-0.012 0.371,-0.063 0.055,-0.019 0.102,-0.043 0.16,-0.07 0.055,0.031 0.098,0.043 0.153,0.074 0.035,0.02 0.066,0.028 0.101,0.047 -0.051,0.035 -0.094,0.051 -0.148,0.086 -0.075,0.047 -0.125,0.067 -0.196,0.11 -0.082,-0.036 -0.175,-0.094 -0.254,-0.114 -0.101,-0.031 -0.203,-0.047 -0.3,-0.008 -0.102,0.043 -0.164,0.161 -0.164,0.282 -0.004,0.058 0.007,0.109 0.031,0.156 0.023,0.051 0.058,0.094 0.109,0.117 0.094,0.047 0.196,0.027 0.289,-0.004 0.09,-0.031 0.196,-0.105 0.293,-0.164 0.117,0.055 0.207,0.086 0.332,0.149 0.02,0.011 0.035,0.015 0.055,0.027 -0.063,0.039 -0.113,0.059 -0.176,0.101 -0.031,0.02 -0.051,0.032 -0.082,0.051 -0.148,-0.023 -0.324,-0.09 -0.449,-0.086 -0.164,0.008 -0.309,0.032 -0.422,0.098 -0.117,0.07 -0.195,0.203 -0.191,0.348 0,0.066 0.011,0.121 0.039,0.175 0.031,0.055 0.086,0.094 0.14,0.114 0.114,0.035 0.223,0.004 0.332,-0.043 0.18,-0.074 0.391,-0.219 0.602,-0.36 0.191,0.036 0.363,0.036 0.57,0.11 0.387,0.133 0.77,0.328 1.039,0.547 0.27,0.222 0.41,0.453 0.379,0.668 -0.043,0.308 -0.297,0.582 -0.683,0.793 -0.387,0.207 -0.891,0.347 -1.399,0.398 -0.508,0.051 -1.015,0.012 -1.398,-0.121 -0.383,-0.133 -0.633,-0.348 -0.68,-0.656 -0.039,-0.239 0.086,-0.446 0.332,-0.633 0.246,-0.188 0.613,-0.336 1.008,-0.414 0.391,-0.082 0.805,-0.098 1.148,-0.035 0.348,0.062 0.618,0.207 0.746,0.414 0.04,0.066 0.043,0.132 0.012,0.215 -0.027,0.085 -0.09,0.183 -0.18,0.277 -0.179,0.183 -0.453,0.34 -0.648,0.39 -0.254,0.063 -0.668,0.051 -0.992,-0.05 -0.16,-0.051 -0.293,-0.125 -0.383,-0.207 -0.086,-0.082 -0.129,-0.16 -0.121,-0.27 0.008,-0.094 0.066,-0.164 0.184,-0.226 0.113,-0.067 0.277,-0.11 0.453,-0.129 0.175,-0.016 0.363,-0.012 0.519,0.008 0.156,0.019 0.285,0.058 0.328,0.085 0.055,0.039 0.129,0.028 0.168,-0.027 0.039,-0.055 0.024,-0.129 -0.035,-0.168 -0.105,-0.074 -0.254,-0.105 -0.43,-0.129 -0.175,-0.023 -0.378,-0.027 -0.574,-0.004 -0.199,0.02 -0.39,0.067 -0.547,0.153 -0.156,0.086 -0.289,0.226 -0.304,0.414 -0.016,0.183 0.07,0.347 0.195,0.465 0.129,0.121 0.293,0.203 0.477,0.261 0.371,0.117 0.808,0.133 1.125,0.051 0.253,-0.062 0.539,-0.234 0.753,-0.457 0.106,-0.109 0.192,-0.227 0.239,-0.363 0.043,-0.133 0.043,-0.281 -0.039,-0.414 -0.176,-0.293 -0.516,-0.45 -0.903,-0.52 -0.386,-0.07 -0.828,-0.055 -1.246,0.031 -0.418,0.086 -0.808,0.243 -1.097,0.461 -0.29,0.219 -0.477,0.516 -0.422,0.86 0.066,0.414 0.402,0.691 0.832,0.84 0.429,0.152 0.968,0.191 1.504,0.136 0.535,-0.054 1.07,-0.199 1.492,-0.429 0.422,-0.231 0.746,-0.555 0.804,-0.969 0.047,-0.332 -0.16,-0.633 -0.46,-0.879 -0.305,-0.246 -0.707,-0.449 -1.118,-0.594 -0.121,-0.043 -0.222,-0.035 -0.343,-0.062 0.066,-0.047 0.113,-0.071 0.175,-0.11 0.129,0.059 0.266,0.137 0.379,0.16 0.11,0.02 0.223,0.02 0.317,-0.042 0.093,-0.063 0.133,-0.18 0.129,-0.313 0,-0.066 -0.012,-0.129 -0.043,-0.18 -0.028,-0.054 -0.078,-0.097 -0.133,-0.117 -0.113,-0.043 -0.219,-0.012 -0.332,0.031 -0.102,0.039 -0.223,0.129 -0.336,0.196 -0.07,-0.035 -0.121,-0.043 -0.195,-0.082 -0.063,-0.035 -0.118,-0.055 -0.184,-0.086 0.023,-0.012 0.043,-0.02 0.062,-0.032 0.102,-0.066 0.176,-0.105 0.27,-0.164 0.07,0.028 0.141,0.079 0.203,0.094 0.086,0.02 0.18,0.027 0.266,-0.019 0.086,-0.043 0.133,-0.141 0.14,-0.246 0.004,-0.055 0.004,-0.102 -0.019,-0.149 -0.02,-0.051 -0.07,-0.098 -0.121,-0.113 -0.098,-0.031 -0.184,0.004 -0.27,0.043 -0.062,0.027 -0.14,0.086 -0.211,0.125 -0.074,-0.035 -0.129,-0.055 -0.211,-0.098 0.11,-0.051 0.239,-0.121 0.317,-0.144 0.113,-0.036 0.113,-0.196 0,-0.231 l -0.41,-0.121 0.214,-0.102 c 0.094,-0.042 0.09,-0.179 -0.007,-0.218 l -0.184,-0.078 0.184,-0.086 c 0.089,-0.043 0.089,-0.168 0,-0.211 L 23.48,102.555 V 99.68 c 0,-0.067 -0.054,-0.121 -0.121,-0.121 z m -0.593,4.192 c 0.004,0 0.05,0 0.117,0.019 0.015,0.008 0.051,0.028 0.074,0.039 -0.09,0.028 -0.176,0.043 -0.187,0.04 -0.004,-0.004 -0.012,-0.032 -0.004,-0.082 0.004,-0.04 -0.008,-0.012 0,-0.016 z m 1.355,0.242 c 0,0.004 0,0 0,0.004 -0.004,0.059 -0.012,0.055 -0.016,0.059 -0.003,0 -0.039,0.007 -0.097,-0.004 0,-0.004 -0.008,-0.008 -0.008,-0.008 0.012,-0.008 0.035,-0.024 0.047,-0.027 0.051,-0.02 0.062,-0.02 0.074,-0.024 z m -1.433,0.375 c 0.011,-0.008 0.066,-0.008 0.148,0.02 0.012,0.004 0.043,0.019 0.059,0.027 -0.032,0.012 -0.086,0.051 -0.114,0.059 -0.066,0.023 -0.105,0.011 -0.101,0.015 -0.004,-0.008 -0.004,-0.027 -0.004,-0.062 0,-0.067 0.004,-0.055 0.012,-0.059 z m 1.695,0.18 c 0,0 0.004,0.004 0.004,0.004 0.008,0.011 0.015,0.035 0.015,0.074 0,0.09 -0.015,0.105 -0.027,0.113 -0.012,0.008 -0.055,0.016 -0.133,0 -0.039,-0.008 -0.117,-0.051 -0.168,-0.07 0.043,-0.02 0.11,-0.074 0.145,-0.086 0.09,-0.039 0.156,-0.039 0.164,-0.035 z m -1.539,0.469 c 0.035,-0.004 0.097,0.023 0.14,0.027 -0.117,0.07 -0.257,0.168 -0.343,0.203 -0.09,0.039 -0.153,0.039 -0.164,0.039 0,0 -0.004,-0.008 -0.004,-0.008 -0.004,-0.004 -0.012,-0.027 -0.012,-0.066 -0.004,-0.07 0.019,-0.098 0.078,-0.133 0.059,-0.035 0.164,-0.059 0.305,-0.066 z"
           style="fill:#aa8800;fill-opacity:1;fill-rule:nonzero;stroke:none"
           transform="scale(1.3333333)"
           clip-path="url(#clipPath2625)"
           id="path2646" />
        <path
           d="m 18.574,116.941 c -0.074,-0.035 -0.176,-0.136 -0.226,-0.218 -0.078,-0.137 -0.145,-0.164 -0.465,-0.192 -0.797,-0.066 -1.231,-0.429 -1.285,-1.066 -0.024,-0.277 -0.043,-0.324 -0.125,-0.277 -0.059,0.035 -0.086,0.113 -0.063,0.207 0.063,0.293 -0.203,0.574 -0.398,0.417 -0.153,-0.124 -0.125,-0.39 0.054,-0.55 0.122,-0.11 0.149,-0.176 0.114,-0.27 -0.059,-0.18 -0.118,-0.152 -0.219,0.094 -0.07,0.18 -0.109,0.219 -0.231,0.23 -0.222,0.024 -0.343,-0.25 -0.191,-0.437 0.059,-0.078 0.16,-0.145 0.219,-0.152 0.082,-0.008 0.094,-0.02 0.047,-0.059 -0.032,-0.023 -0.121,-0.023 -0.2,0.004 -0.191,0.066 -0.269,-0.012 -0.246,-0.246 0.02,-0.184 0.012,-0.196 -0.117,-0.16 -0.133,0.035 -0.137,0.031 -0.125,-0.129 0.008,-0.137 -0.055,-0.223 -0.406,-0.555 -0.231,-0.215 -0.399,-0.414 -0.375,-0.441 0.066,-0.086 0.891,0.73 0.887,0.879 -0.008,0.109 0.007,0.113 0.125,0.035 l 0.132,-0.086 0.008,0.281 c 0.004,0.266 0.012,0.281 0.153,0.266 0.144,-0.012 0.152,-0.028 0.136,-0.223 -0.019,-0.25 0.153,-0.441 0.313,-0.355 0.144,0.078 0.133,0.3 -0.031,0.5 -0.141,0.171 -0.133,0.316 0.019,0.3 0.067,-0.008 0.11,-0.066 0.152,-0.203 0.067,-0.23 0.282,-0.355 0.422,-0.242 0.196,0.16 0.078,0.449 -0.214,0.535 -0.133,0.035 -0.153,0.063 -0.137,0.152 0.035,0.165 0.254,0.094 0.422,-0.136 0.207,-0.289 0.425,-0.395 0.57,-0.278 0.242,0.196 0.051,0.473 -0.367,0.536 l -0.235,0.031 0.039,0.359 c 0.04,0.356 0.114,0.469 0.489,0.723 0.187,0.125 0.652,0.238 0.851,0.207 0.211,-0.035 0.231,-0.149 0.075,-0.469 -0.079,-0.164 -0.149,-0.23 -0.321,-0.305 -0.121,-0.05 -0.246,-0.086 -0.277,-0.074 -0.09,0.031 -0.024,0.477 0.082,0.563 0.105,0.082 0.273,-0.071 0.199,-0.188 -0.023,-0.039 -0.019,-0.074 0.012,-0.078 0.027,-0.004 0.07,0.055 0.09,0.129 0.027,0.102 0,0.164 -0.102,0.242 -0.187,0.141 -0.41,-0.031 -0.433,-0.336 -0.016,-0.215 -0.114,-0.359 -0.184,-0.273 -0.059,0.074 -0.305,0.008 -0.367,-0.098 -0.063,-0.105 0.078,-0.301 0.23,-0.316 0.059,-0.008 0.168,0.039 0.246,0.101 0.078,0.063 0.215,0.121 0.305,0.129 0.348,0.039 0.555,0.211 0.672,0.563 0.098,0.281 0.133,0.328 0.273,0.355 0.176,0.031 0.336,0.195 0.325,0.332 -0.016,0.18 -0.184,0.305 -0.321,0.242 z m 0.09,-0.379 c -0.184,-0.148 -0.297,-0.113 -0.219,0.071 0.071,0.164 0.219,0.226 0.305,0.121 0.039,-0.051 0.012,-0.113 -0.086,-0.192 z m -1.519,-1.195 c -0.055,-0.015 -0.133,0.004 -0.168,0.051 -0.063,0.074 -0.051,0.082 0.105,0.074 0.188,-0.012 0.219,-0.074 0.063,-0.125 z m 0.074,-0.699 c -0.078,-0.063 -0.293,0.066 -0.379,0.23 -0.051,0.098 -0.047,0.102 0.101,0.086 0.192,-0.023 0.379,-0.234 0.278,-0.316 z m -0.918,0.727 c -0.02,-0.098 -0.043,-0.11 -0.125,-0.059 -0.114,0.062 -0.156,0.246 -0.09,0.355 0.062,0.094 0.246,-0.152 0.215,-0.296 z m 0.258,-0.973 c -0.039,-0.031 -0.106,-0.027 -0.145,0.008 -0.105,0.09 -0.109,0.265 -0.008,0.277 0.121,0.016 0.242,-0.211 0.153,-0.285 z m -0.688,0.555 c 0.016,-0.133 -0.129,-0.153 -0.226,-0.032 -0.086,0.106 -0.063,0.231 0.05,0.243 0.09,0.011 0.16,-0.075 0.176,-0.211 z m 0.176,-0.907 c -0.063,-0.097 -0.164,0.051 -0.133,0.203 0.02,0.114 0.035,0.114 0.102,0 0.043,-0.074 0.058,-0.164 0.031,-0.203 z"
           style="fill:#aa8800;fill-opacity:1;fill-rule:nonzero;stroke:none"
           transform="scale(1.3333333)"
           clip-path="url(#clipPath2626)"
           id="path2647" />
        <path
           d="m 29.738,113.688 c 0.188,-0.071 0.262,-0.305 0.149,-0.473 -0.039,-0.055 -0.067,-0.16 -0.063,-0.231 0.008,-0.386 -0.136,-0.679 -0.449,-0.886 -0.207,-0.141 -0.555,-0.246 -0.73,-0.219 -0.141,0.019 -0.086,-0.039 0.093,-0.102 0.2,-0.074 0.602,-0.101 0.891,-0.062 0.285,0.035 0.301,0.043 0.363,0.234 0.094,0.27 0.289,0.414 0.422,0.313 0.176,-0.137 0.059,-0.383 -0.234,-0.5 -0.149,-0.059 -0.196,-0.098 -0.25,-0.192 -0.035,-0.066 -0.059,-0.125 -0.055,-0.132 0.008,-0.012 0.105,-0.02 0.219,-0.024 l 0.207,-0.004 0.039,0.149 c 0.078,0.265 0.297,0.316 0.336,0.082 0.019,-0.118 -0.129,-0.293 -0.242,-0.282 -0.055,0.004 -0.079,-0.023 -0.102,-0.129 l -0.031,-0.132 0.242,-0.055 0.07,0.148 c 0.063,0.133 0.078,0.145 0.157,0.129 0.191,-0.035 0.168,-0.316 -0.028,-0.332 -0.058,-0.004 -0.086,-0.031 -0.097,-0.093 -0.016,-0.083 -0.008,-0.09 0.089,-0.114 0.098,-0.023 0.11,-0.019 0.168,0.09 0.078,0.141 0.196,0.152 0.258,0.027 0.031,-0.066 0.012,-0.093 -0.101,-0.168 -0.145,-0.097 -0.274,-0.292 -0.211,-0.32 0.019,-0.012 0.062,0 0.097,0.024 0.11,0.074 0.149,0.011 0.078,-0.118 l -0.066,-0.125 0.133,-0.031 c 0.133,-0.031 0.137,-0.031 0.105,-0.121 -0.019,-0.051 -0.05,-0.101 -0.066,-0.113 -0.02,-0.012 0.012,-0.031 0.062,-0.047 0.059,-0.012 0.094,-0.043 0.086,-0.074 -0.004,-0.028 0.078,-0.188 0.184,-0.356 0.125,-0.203 0.18,-0.32 0.156,-0.347 -0.023,-0.032 -0.078,0.039 -0.234,0.289 -0.11,0.179 -0.203,0.347 -0.203,0.371 0,0.027 -0.039,0.043 -0.086,0.043 -0.078,-0.008 -0.082,0 -0.051,0.086 0.016,0.05 0.043,0.109 0.055,0.132 0.015,0.024 -0.028,0.047 -0.106,0.055 l -0.133,0.02 0.036,0.109 c 0.043,0.141 0.031,0.156 -0.086,0.094 -0.098,-0.047 -0.219,-0.008 -0.137,0.047 0.023,0.015 0.074,0.093 0.113,0.175 0.063,0.137 0.059,0.145 -0.035,0.168 -0.094,0.02 -0.105,0.016 -0.141,-0.07 -0.082,-0.219 -0.32,-0.246 -0.355,-0.039 -0.024,0.145 0.035,0.215 0.18,0.215 0.23,0.004 0.195,0.156 -0.047,0.195 -0.114,0.02 -0.164,0.004 -0.199,-0.051 -0.133,-0.195 -0.344,-0.226 -0.403,-0.058 -0.031,0.086 -0.019,0.117 0.063,0.172 0.058,0.039 0.164,0.074 0.238,0.078 0.129,0.008 0.141,0.015 0.156,0.101 0.012,0.055 0.008,0.098 -0.004,0.098 -0.011,0 -0.109,0.004 -0.215,0.008 -0.183,0.008 -0.199,0 -0.293,-0.121 -0.085,-0.11 -0.117,-0.129 -0.222,-0.129 -0.141,-0.004 -0.219,0.082 -0.192,0.215 0.02,0.097 0.11,0.14 0.329,0.148 0.109,0.004 0.148,0.024 0.191,0.094 0.031,0.047 0.047,0.098 0.043,0.105 -0.008,0.016 -0.102,0.004 -0.203,-0.015 -0.25,-0.055 -0.774,-0.016 -0.985,0.07 -0.304,0.121 -0.675,0.59 -0.64,0.816 0.019,0.141 0.179,0.321 0.301,0.336 0.207,0.024 0.39,-0.035 0.468,-0.148 0.157,-0.231 -0.023,-0.539 -0.289,-0.496 -0.207,0.031 -0.281,0.246 -0.117,0.351 0.109,0.075 0.168,0.028 0.07,-0.058 -0.101,-0.086 -0.074,-0.188 0.059,-0.211 0.121,-0.024 0.215,0.047 0.242,0.18 0.039,0.207 -0.172,0.355 -0.422,0.296 -0.23,-0.05 -0.281,-0.386 -0.093,-0.597 0.214,-0.238 0.593,-0.266 0.957,-0.067 0.304,0.168 0.433,0.344 0.492,0.668 0.051,0.278 0.051,0.278 -0.055,0.27 -0.242,-0.027 -0.375,0.265 -0.332,0.445 0.039,0.145 0.305,0.235 0.406,0.199 z m -0.367,-0.223 c -0.023,-0.176 0.031,-0.266 0.184,-0.305 0.109,-0.031 0.152,-0.023 0.215,0.043 0.105,0.121 0.093,0.309 -0.024,0.383 -0.156,0.094 -0.355,0.027 -0.375,-0.121 z m 0.731,-1.477 c -0.071,-0.179 -0.063,-0.203 0.074,-0.144 0.125,0.051 0.273,0.261 0.226,0.324 -0.074,0.117 -0.214,0.035 -0.3,-0.18 z m -0.704,-0.777 c 0.047,-0.074 0.204,-0.043 0.254,0.055 0.051,0.093 0,0.129 -0.132,0.097 -0.11,-0.027 -0.165,-0.093 -0.122,-0.152 z m 1.032,0.336 c -0.032,-0.106 -0.028,-0.117 0.035,-0.102 0.09,0.02 0.172,0.168 0.125,0.231 -0.043,0.07 -0.117,0.012 -0.16,-0.129 z m -0.571,-0.656 c 0.043,-0.071 0.141,-0.043 0.235,0.062 0.074,0.082 0.074,0.086 -0.02,0.09 -0.129,0.004 -0.262,-0.09 -0.215,-0.152 z m 0.797,0.214 c 0.004,-0.054 0.117,-0.066 0.16,-0.015 0.016,0.019 0.016,0.062 0,0.098 -0.031,0.07 -0.164,0.003 -0.16,-0.083 z m -0.32,-0.527 c 0.051,-0.074 0.18,-0.035 0.195,0.063 0.012,0.047 -0.011,0.062 -0.086,0.066 -0.121,0.004 -0.164,-0.047 -0.109,-0.129 z m 0.637,0.211 c 0,-0.023 0.031,-0.023 0.07,0 0.039,0.027 0.059,0.063 0.047,0.082 -0.012,0.02 -0.043,0.02 -0.07,0 -0.028,-0.016 -0.047,-0.055 -0.047,-0.082 z"
           style="fill:#aa8800;fill-opacity:1;fill-rule:nonzero;stroke:none"
           transform="scale(1.3333333)"
           clip-path="url(#clipPath2627)"
           id="path2648" />
        <path
           d="m 19.145,119.297 c -0.047,-0.039 -0.106,-0.043 -0.184,-0.012 -0.137,0.055 -0.199,0.039 -0.211,-0.051 -0.023,-0.148 -0.391,-0.789 -0.57,-0.988 -0.18,-0.199 -0.207,-0.219 -0.512,-0.316 -0.414,-0.133 -0.777,-0.098 -1.313,0.125 l -0.25,0.101 -0.082,-0.105 c -0.16,-0.203 -0.359,-0.196 -0.386,0.015 -0.02,0.149 0.101,0.262 0.25,0.231 0.109,-0.024 0.117,-0.016 0.215,0.215 0.125,0.293 0.25,0.437 0.57,0.652 0.234,0.16 0.269,0.172 0.504,0.195 0.265,0.028 0.437,0 0.715,-0.109 0.14,-0.055 0.195,-0.055 0.316,0.004 0.168,0.078 0.281,0.058 0.328,-0.059 0.067,-0.179 -0.066,-0.285 -0.285,-0.218 -0.125,0.039 -0.133,0.035 -0.18,-0.055 -0.023,-0.051 -0.043,-0.129 -0.039,-0.172 0,-0.043 -0.051,-0.168 -0.117,-0.277 -0.098,-0.164 -0.152,-0.211 -0.297,-0.266 -0.226,-0.09 -0.48,-0.07 -0.742,0.051 -0.187,0.086 -0.223,0.09 -0.336,0.019 -0.164,-0.093 -0.328,-0.031 -0.312,0.121 0.015,0.11 0.16,0.18 0.257,0.125 0.11,-0.058 0.153,-0.023 0.25,0.207 0.153,0.368 0.309,0.489 0.606,0.465 0.39,-0.027 0.566,-0.515 0.265,-0.734 -0.355,-0.262 -0.789,-0.008 -0.625,0.363 0.094,0.211 0.512,0.246 0.52,0.039 0.004,-0.195 -0.121,-0.297 -0.242,-0.191 -0.078,0.062 -0.043,0.098 0.054,0.055 0.083,-0.036 0.129,0.062 0.075,0.152 -0.035,0.051 -0.078,0.051 -0.192,0.008 -0.125,-0.051 -0.152,-0.082 -0.168,-0.184 -0.015,-0.113 -0.007,-0.137 0.078,-0.207 0.129,-0.105 0.333,-0.082 0.477,0.059 0.086,0.082 0.106,0.136 0.082,0.246 -0.035,0.195 -0.117,0.281 -0.289,0.308 -0.273,0.051 -0.387,-0.031 -0.547,-0.386 l -0.14,-0.321 0.226,-0.086 c 0.57,-0.214 0.895,-0.054 1.051,0.52 l 0.074,0.262 -0.187,0.074 c -0.254,0.105 -0.477,0.137 -0.711,0.105 -0.161,-0.019 -0.239,-0.054 -0.442,-0.191 -0.137,-0.094 -0.277,-0.199 -0.312,-0.238 -0.086,-0.102 -0.293,-0.543 -0.278,-0.59 0.02,-0.047 0.395,-0.196 0.657,-0.258 0.757,-0.184 1.254,0.023 1.625,0.672 0.14,0.25 0.312,0.644 0.297,0.683 -0.008,0.02 -0.153,0.079 -0.325,0.133 -0.496,0.164 -1.379,0.207 -1.695,0.082 -0.164,-0.062 -0.523,-0.343 -0.711,-0.547 -0.164,-0.187 -0.34,-0.566 -0.41,-0.894 -0.027,-0.113 -0.043,-0.215 -0.039,-0.223 0.004,-0.011 0.094,-0.062 0.199,-0.117 0.332,-0.168 0.289,-0.449 -0.047,-0.332 -0.117,0.039 -0.152,0.078 -0.219,0.238 -0.086,0.207 -0.191,0.293 -0.238,0.192 -0.019,-0.047 -0.004,-0.071 0.063,-0.098 0.113,-0.051 0.148,-0.152 0.089,-0.266 -0.054,-0.113 -0.191,-0.132 -0.293,-0.046 -0.054,0.046 -0.062,0.089 -0.042,0.179 0.019,0.11 0.015,0.125 -0.059,0.156 -0.078,0.036 -0.082,0.028 -0.078,-0.097 0.004,-0.16 -0.016,-0.176 -0.153,-0.11 -0.097,0.047 -0.105,0.043 -0.125,-0.035 -0.019,-0.078 -0.031,-0.082 -0.14,-0.035 -0.106,0.039 -0.164,0.031 -0.449,-0.082 -0.196,-0.074 -0.336,-0.109 -0.344,-0.09 -0.008,0.024 0.125,0.094 0.332,0.172 0.273,0.11 0.367,0.129 0.441,0.102 0.086,-0.035 0.102,-0.028 0.11,0.031 0.011,0.055 0.031,0.062 0.109,0.051 0.133,-0.028 0.137,-0.02 0.133,0.129 l -0.004,0.132 0.148,-0.062 c 0.118,-0.047 0.153,-0.047 0.184,0.004 0.027,0.055 0.016,0.09 -0.055,0.18 -0.101,0.128 -0.132,0.296 -0.066,0.359 0.027,0.023 0.105,0.047 0.18,0.047 0.164,0.008 0.222,-0.121 0.16,-0.34 -0.032,-0.106 -0.028,-0.168 0.008,-0.195 0.031,-0.024 0.058,-0.032 0.062,-0.016 0.004,0.012 0.027,0.117 0.055,0.238 0.027,0.117 0.097,0.321 0.156,0.453 0.16,0.372 0.656,0.86 1.016,1 0.339,0.129 1.23,0.086 1.789,-0.089 0.261,-0.079 0.316,-0.082 0.367,-0.024 0.031,0.035 0.109,0.078 0.168,0.094 0.094,0.027 0.113,0.012 0.18,-0.121 0.058,-0.129 0.058,-0.164 0,-0.211 z m -0.071,0.23 c -0.051,0.055 -0.219,0.012 -0.23,-0.062 -0.008,-0.043 0.191,-0.145 0.246,-0.121 0.015,0.004 0.027,0.035 0.027,0.062 0,0.032 0.004,0.059 0.004,0.063 0,0.004 -0.023,0.031 -0.047,0.058 z m -0.785,-0.324 c -0.148,-0.055 -0.152,-0.098 -0.008,-0.152 0.121,-0.043 0.211,0.023 0.172,0.129 -0.023,0.062 -0.055,0.066 -0.164,0.023 z m -1.863,-0.746 c -0.047,0 -0.098,-0.023 -0.117,-0.043 -0.043,-0.059 0.082,-0.121 0.171,-0.086 0.094,0.035 0.051,0.137 -0.054,0.129 z m -0.547,-0.238 c -0.098,0.011 -0.195,-0.09 -0.164,-0.172 0.031,-0.078 0.133,-0.067 0.207,0.019 0.074,0.086 0.062,0.137 -0.043,0.153 z m -0.188,-0.52 c -0.168,0.067 -0.222,0.047 -0.148,-0.051 0.062,-0.078 0.238,-0.156 0.297,-0.132 0.07,0.027 -0.016,0.129 -0.149,0.183 z m -0.511,0.758 c -0.114,0 -0.149,-0.145 -0.067,-0.266 0.082,-0.129 0.125,-0.121 0.16,0.024 0.036,0.137 -0.007,0.242 -0.093,0.242 z m 0.023,-0.734 c -0.078,0.035 -0.086,0.027 -0.109,-0.067 -0.024,-0.09 -0.016,-0.105 0.058,-0.136 0.067,-0.032 0.09,-0.028 0.121,0.035 0.051,0.09 0.039,0.121 -0.07,0.168 z"
           style="fill:#aa8800;fill-opacity:1;fill-rule:nonzero;stroke:none"
           transform="scale(1.3333333)"
           clip-path="url(#clipPath2628)"
           id="path2649" />
        <path
           d="m 17.039,114.082 c -0.191,-0.07 -0.262,-0.301 -0.152,-0.473 0.039,-0.054 0.066,-0.16 0.066,-0.226 -0.012,-0.391 0.133,-0.684 0.445,-0.891 0.207,-0.14 0.555,-0.242 0.731,-0.219 0.141,0.02 0.09,-0.039 -0.09,-0.101 -0.199,-0.07 -0.601,-0.102 -0.891,-0.063 -0.285,0.036 -0.3,0.043 -0.367,0.235 -0.09,0.269 -0.289,0.418 -0.422,0.312 -0.171,-0.136 -0.058,-0.383 0.235,-0.5 0.152,-0.058 0.199,-0.097 0.25,-0.191 0.035,-0.067 0.062,-0.125 0.054,-0.133 -0.003,-0.008 -0.101,-0.02 -0.214,-0.023 l -0.207,-0.004 -0.043,0.148 c -0.075,0.266 -0.297,0.317 -0.336,0.082 -0.02,-0.117 0.132,-0.293 0.242,-0.281 0.058,0.004 0.082,-0.024 0.105,-0.125 l 0.032,-0.137 -0.243,-0.054 -0.07,0.148 c -0.062,0.133 -0.078,0.144 -0.16,0.129 -0.192,-0.035 -0.168,-0.317 0.027,-0.332 0.059,-0.004 0.086,-0.031 0.098,-0.094 0.016,-0.082 0.008,-0.09 -0.086,-0.113 -0.098,-0.024 -0.113,-0.02 -0.172,0.09 -0.074,0.14 -0.195,0.152 -0.254,0.027 -0.031,-0.063 -0.015,-0.094 0.098,-0.168 0.148,-0.098 0.277,-0.293 0.215,-0.32 -0.02,-0.012 -0.067,0 -0.102,0.023 -0.109,0.074 -0.148,0.012 -0.078,-0.117 l 0.07,-0.125 -0.136,-0.031 c -0.133,-0.032 -0.133,-0.032 -0.102,-0.121 0.02,-0.051 0.047,-0.102 0.066,-0.114 0.016,-0.011 -0.011,-0.031 -0.066,-0.047 -0.055,-0.011 -0.09,-0.043 -0.086,-0.074 0.004,-0.027 -0.074,-0.187 -0.18,-0.355 -0.128,-0.203 -0.179,-0.321 -0.16,-0.348 0.024,-0.031 0.082,0.039 0.235,0.289 0.113,0.18 0.203,0.348 0.203,0.371 0.004,0.028 0.039,0.043 0.086,0.043 0.078,-0.008 0.082,0 0.054,0.086 -0.015,0.051 -0.043,0.11 -0.058,0.133 -0.016,0.023 0.031,0.047 0.105,0.055 l 0.133,0.019 -0.035,0.11 c -0.043,0.14 -0.031,0.156 0.09,0.097 0.097,-0.051 0.215,-0.011 0.133,0.043 -0.024,0.016 -0.075,0.094 -0.11,0.176 -0.062,0.137 -0.062,0.144 0.035,0.168 0.09,0.019 0.106,0.016 0.137,-0.07 0.086,-0.219 0.32,-0.246 0.356,-0.039 0.023,0.144 -0.032,0.214 -0.18,0.214 -0.231,0.004 -0.192,0.157 0.047,0.196 0.113,0.019 0.164,0.004 0.199,-0.051 0.133,-0.195 0.344,-0.227 0.406,-0.059 0.031,0.086 0.02,0.118 -0.066,0.172 -0.055,0.039 -0.164,0.074 -0.238,0.078 -0.129,0.008 -0.137,0.016 -0.153,0.106 -0.012,0.051 -0.012,0.094 0,0.094 0.012,0 0.11,0.003 0.215,0.007 0.184,0.008 0.199,0 0.297,-0.121 0.086,-0.109 0.113,-0.129 0.223,-0.129 0.14,-0.004 0.214,0.082 0.191,0.215 -0.02,0.098 -0.109,0.141 -0.328,0.149 -0.11,0.004 -0.153,0.023 -0.195,0.093 -0.028,0.047 -0.047,0.098 -0.04,0.11 0.008,0.011 0.098,0 0.2,-0.02 0.254,-0.051 0.773,-0.015 0.984,0.071 0.309,0.121 0.676,0.589 0.645,0.816 -0.02,0.141 -0.18,0.32 -0.301,0.332 -0.207,0.027 -0.395,-0.031 -0.473,-0.145 -0.152,-0.23 0.027,-0.539 0.289,-0.496 0.211,0.032 0.281,0.246 0.121,0.352 -0.109,0.074 -0.168,0.027 -0.07,-0.059 0.102,-0.086 0.07,-0.187 -0.059,-0.211 -0.125,-0.023 -0.214,0.047 -0.242,0.18 -0.039,0.207 0.168,0.356 0.422,0.297 0.227,-0.051 0.281,-0.387 0.094,-0.598 -0.215,-0.238 -0.594,-0.265 -0.957,-0.066 -0.305,0.168 -0.438,0.344 -0.496,0.668 -0.047,0.277 -0.047,0.277 0.054,0.269 0.246,-0.027 0.375,0.266 0.332,0.446 -0.035,0.144 -0.304,0.234 -0.402,0.199 z m 0.367,-0.223 c 0.024,-0.175 -0.031,-0.265 -0.183,-0.304 -0.114,-0.032 -0.157,-0.024 -0.215,0.043 -0.11,0.121 -0.098,0.308 0.023,0.382 0.153,0.094 0.356,0.028 0.375,-0.121 z m -0.734,-1.472 c 0.074,-0.184 0.062,-0.207 -0.07,-0.149 -0.125,0.051 -0.274,0.262 -0.231,0.328 0.078,0.114 0.219,0.032 0.301,-0.179 z m 0.707,-0.782 c -0.051,-0.074 -0.207,-0.043 -0.258,0.055 -0.047,0.094 0.004,0.133 0.137,0.098 0.109,-0.024 0.16,-0.094 0.121,-0.153 z m -1.031,0.336 c 0.027,-0.101 0.023,-0.117 -0.036,-0.101 -0.089,0.019 -0.171,0.168 -0.128,0.23 0.046,0.071 0.121,0.012 0.164,-0.129 z m 0.57,-0.656 c -0.047,-0.066 -0.145,-0.043 -0.238,0.063 -0.075,0.082 -0.075,0.086 0.019,0.09 0.133,0.003 0.262,-0.086 0.219,-0.153 z m -0.801,0.219 c 0,-0.059 -0.117,-0.07 -0.16,-0.02 -0.012,0.02 -0.012,0.063 0,0.098 0.031,0.07 0.164,0.004 0.16,-0.082 z m 0.321,-0.531 c -0.047,-0.075 -0.176,-0.035 -0.196,0.062 -0.008,0.047 0.012,0.063 0.086,0.067 0.125,0.007 0.168,-0.043 0.11,-0.129 z m -0.633,0.215 c -0.004,-0.028 -0.035,-0.028 -0.075,-0.004 -0.035,0.027 -0.058,0.062 -0.042,0.082 0.011,0.019 0.042,0.019 0.07,0 0.023,-0.016 0.047,-0.055 0.047,-0.078 z"
           style="fill:#aa8800;fill-opacity:1;fill-rule:nonzero;stroke:none"
           transform="scale(1.3333333)"
           clip-path="url(#clipPath2629)"
           id="path2650" />
        <path
           d="m 27.934,116.891 c 0.074,-0.032 0.175,-0.133 0.226,-0.219 0.078,-0.133 0.145,-0.16 0.465,-0.188 0.797,-0.066 1.23,-0.429 1.285,-1.066 0.024,-0.277 0.043,-0.324 0.125,-0.277 0.059,0.035 0.086,0.113 0.063,0.207 -0.063,0.293 0.203,0.57 0.398,0.418 0.152,-0.125 0.125,-0.391 -0.055,-0.551 -0.121,-0.11 -0.148,-0.176 -0.113,-0.27 0.059,-0.179 0.117,-0.152 0.219,0.094 0.07,0.176 0.109,0.219 0.23,0.231 0.223,0.023 0.344,-0.254 0.192,-0.438 -0.059,-0.078 -0.16,-0.144 -0.219,-0.152 -0.082,-0.008 -0.094,-0.02 -0.047,-0.059 0.031,-0.023 0.121,-0.023 0.199,0.004 0.192,0.063 0.27,-0.012 0.246,-0.246 -0.019,-0.188 -0.015,-0.195 0.118,-0.16 0.132,0.035 0.136,0.027 0.125,-0.129 -0.008,-0.137 0.054,-0.227 0.406,-0.555 0.226,-0.215 0.398,-0.414 0.375,-0.441 -0.07,-0.086 -0.891,0.73 -0.887,0.879 0.008,0.109 -0.008,0.113 -0.125,0.035 l -0.133,-0.086 -0.007,0.281 c -0.004,0.266 -0.012,0.281 -0.153,0.266 -0.144,-0.016 -0.152,-0.028 -0.137,-0.227 0.02,-0.246 -0.152,-0.437 -0.312,-0.351 -0.145,0.074 -0.133,0.297 0.031,0.5 0.141,0.171 0.133,0.316 -0.019,0.3 -0.067,-0.007 -0.11,-0.066 -0.153,-0.203 -0.066,-0.23 -0.281,-0.355 -0.422,-0.242 -0.195,0.156 -0.078,0.449 0.215,0.531 0.133,0.039 0.153,0.063 0.137,0.157 -0.035,0.164 -0.254,0.093 -0.422,-0.137 -0.207,-0.289 -0.426,-0.395 -0.57,-0.277 -0.242,0.195 -0.051,0.472 0.367,0.531 l 0.234,0.035 -0.039,0.359 c -0.039,0.356 -0.113,0.469 -0.488,0.723 -0.187,0.125 -0.652,0.238 -0.851,0.207 -0.211,-0.035 -0.231,-0.148 -0.075,-0.473 0.078,-0.16 0.149,-0.226 0.321,-0.3 0.121,-0.051 0.246,-0.086 0.277,-0.075 0.09,0.032 0.023,0.477 -0.082,0.563 -0.106,0.082 -0.274,-0.07 -0.199,-0.188 0.023,-0.039 0.019,-0.074 -0.012,-0.078 -0.027,-0.008 -0.07,0.055 -0.09,0.129 -0.027,0.102 0,0.164 0.102,0.242 0.187,0.141 0.41,-0.031 0.433,-0.336 0.016,-0.218 0.114,-0.363 0.184,-0.273 0.058,0.074 0.305,0.008 0.367,-0.098 0.063,-0.109 -0.078,-0.3 -0.23,-0.316 -0.059,-0.008 -0.168,0.039 -0.246,0.101 -0.079,0.059 -0.215,0.118 -0.305,0.129 -0.348,0.036 -0.555,0.211 -0.672,0.559 -0.098,0.285 -0.133,0.332 -0.273,0.359 -0.176,0.032 -0.336,0.196 -0.325,0.332 0.016,0.176 0.184,0.305 0.321,0.239 z m -0.09,-0.375 c 0.183,-0.149 0.297,-0.114 0.218,0.066 -0.07,0.168 -0.218,0.23 -0.304,0.125 -0.039,-0.051 -0.012,-0.113 0.086,-0.191 z m 1.519,-1.196 c 0.055,-0.015 0.133,0.004 0.168,0.051 0.063,0.074 0.051,0.082 -0.105,0.074 -0.188,-0.011 -0.219,-0.074 -0.063,-0.125 z m -0.074,-0.699 c 0.078,-0.062 0.293,0.067 0.379,0.231 0.051,0.093 0.047,0.097 -0.102,0.082 -0.191,-0.02 -0.378,-0.231 -0.277,-0.313 z m 0.918,0.727 c 0.02,-0.098 0.043,-0.11 0.125,-0.063 0.113,0.067 0.156,0.25 0.09,0.36 -0.063,0.093 -0.246,-0.157 -0.215,-0.297 z m -0.258,-0.973 c 0.039,-0.031 0.106,-0.031 0.145,0.004 0.105,0.094 0.109,0.269 0.008,0.281 -0.122,0.016 -0.243,-0.211 -0.153,-0.285 z m 0.688,0.555 c -0.016,-0.133 0.129,-0.153 0.226,-0.032 0.086,0.106 0.063,0.231 -0.051,0.243 -0.089,0.011 -0.16,-0.075 -0.175,-0.211 z m -0.176,-0.907 c 0.062,-0.097 0.164,0.051 0.133,0.204 -0.02,0.113 -0.035,0.113 -0.102,0 -0.043,-0.075 -0.058,-0.165 -0.031,-0.204 z"
           style="fill:#aa8800;fill-opacity:1;fill-rule:nonzero;stroke:none"
           transform="scale(1.3333333)"
           clip-path="url(#clipPath2630)"
           id="path2651" />
        <path
           d="m 27.34,119.32 c 0.051,-0.039 0.105,-0.043 0.187,-0.011 0.133,0.054 0.196,0.039 0.211,-0.055 0.02,-0.145 0.387,-0.785 0.567,-0.984 0.179,-0.204 0.207,-0.219 0.511,-0.317 0.414,-0.133 0.778,-0.098 1.317,0.121 l 0.246,0.106 0.086,-0.11 c 0.156,-0.203 0.355,-0.195 0.383,0.016 0.019,0.152 -0.102,0.262 -0.246,0.23 -0.114,-0.023 -0.122,-0.015 -0.219,0.215 -0.125,0.297 -0.25,0.438 -0.571,0.657 -0.234,0.156 -0.269,0.171 -0.503,0.195 -0.266,0.027 -0.438,0 -0.715,-0.11 -0.141,-0.058 -0.196,-0.054 -0.317,0 -0.168,0.082 -0.277,0.063 -0.324,-0.058 -0.07,-0.176 0.067,-0.281 0.281,-0.215 0.125,0.035 0.133,0.035 0.18,-0.055 0.027,-0.05 0.043,-0.129 0.043,-0.175 -0.004,-0.043 0.047,-0.168 0.113,-0.278 0.102,-0.16 0.157,-0.211 0.297,-0.265 0.227,-0.086 0.481,-0.067 0.742,0.05 0.188,0.09 0.223,0.09 0.336,0.024 0.164,-0.098 0.332,-0.031 0.313,0.117 -0.016,0.113 -0.156,0.184 -0.258,0.125 -0.105,-0.059 -0.152,-0.02 -0.246,0.211 -0.156,0.363 -0.313,0.484 -0.609,0.465 -0.391,-0.028 -0.563,-0.516 -0.266,-0.739 0.355,-0.257 0.793,-0.007 0.629,0.368 -0.094,0.211 -0.516,0.242 -0.524,0.039 -0.004,-0.199 0.121,-0.301 0.246,-0.196 0.075,0.067 0.043,0.102 -0.058,0.059 -0.082,-0.039 -0.129,0.059 -0.07,0.152 0.031,0.047 0.074,0.051 0.187,0.004 0.125,-0.047 0.152,-0.078 0.168,-0.183 0.016,-0.114 0.008,-0.133 -0.078,-0.203 -0.129,-0.106 -0.332,-0.082 -0.477,0.058 -0.086,0.082 -0.101,0.133 -0.082,0.246 0.039,0.192 0.118,0.278 0.289,0.309 0.274,0.047 0.387,-0.035 0.547,-0.391 l 0.145,-0.316 -0.231,-0.086 c -0.57,-0.215 -0.89,-0.059 -1.05,0.515 l -0.075,0.262 0.192,0.078 c 0.25,0.102 0.472,0.133 0.707,0.106 0.16,-0.02 0.238,-0.055 0.445,-0.192 0.137,-0.093 0.273,-0.203 0.309,-0.242 0.086,-0.097 0.293,-0.543 0.277,-0.586 -0.02,-0.047 -0.395,-0.195 -0.656,-0.261 -0.758,-0.184 -1.254,0.023 -1.621,0.671 -0.145,0.25 -0.317,0.649 -0.301,0.688 0.008,0.016 0.152,0.074 0.324,0.133 0.496,0.16 1.383,0.203 1.699,0.082 0.16,-0.063 0.524,-0.344 0.707,-0.551 0.164,-0.184 0.34,-0.563 0.414,-0.895 0.024,-0.109 0.039,-0.21 0.036,-0.222 -0.004,-0.008 -0.094,-0.063 -0.2,-0.117 -0.328,-0.164 -0.289,-0.45 0.047,-0.332 0.117,0.043 0.153,0.082 0.219,0.242 0.09,0.207 0.191,0.289 0.238,0.187 0.02,-0.043 0.004,-0.066 -0.058,-0.097 -0.118,-0.047 -0.153,-0.149 -0.094,-0.266 0.059,-0.109 0.191,-0.133 0.293,-0.043 0.055,0.043 0.066,0.086 0.047,0.18 -0.024,0.109 -0.02,0.121 0.058,0.156 0.075,0.031 0.082,0.023 0.078,-0.102 -0.007,-0.16 0.016,-0.175 0.153,-0.109 0.094,0.051 0.101,0.047 0.121,-0.031 0.023,-0.082 0.031,-0.082 0.144,-0.039 0.102,0.043 0.161,0.031 0.45,-0.078 0.191,-0.075 0.332,-0.114 0.339,-0.09 0.012,0.019 -0.124,0.09 -0.332,0.172 -0.273,0.105 -0.367,0.125 -0.441,0.097 -0.082,-0.031 -0.098,-0.027 -0.109,0.032 -0.012,0.058 -0.032,0.066 -0.11,0.05 -0.129,-0.023 -0.136,-0.015 -0.132,0.133 l 0.007,0.129 -0.148,-0.059 c -0.121,-0.05 -0.156,-0.046 -0.184,0.004 -0.031,0.051 -0.019,0.09 0.051,0.176 0.102,0.133 0.133,0.301 0.066,0.363 -0.027,0.024 -0.105,0.043 -0.175,0.047 -0.164,0.004 -0.227,-0.121 -0.164,-0.343 0.031,-0.102 0.027,-0.168 -0.008,-0.196 -0.028,-0.019 -0.055,-0.027 -0.059,-0.015 -0.008,0.011 -0.031,0.121 -0.058,0.238 -0.028,0.117 -0.098,0.324 -0.153,0.453 -0.164,0.371 -0.66,0.859 -1.019,1 -0.34,0.133 -1.227,0.09 -1.789,-0.086 -0.258,-0.082 -0.317,-0.086 -0.367,-0.027 -0.032,0.039 -0.106,0.082 -0.165,0.097 -0.097,0.024 -0.117,0.008 -0.179,-0.125 -0.063,-0.129 -0.063,-0.16 -0.004,-0.211 z m 0.07,0.231 c 0.051,0.054 0.219,0.008 0.231,-0.063 0.011,-0.043 -0.192,-0.144 -0.246,-0.125 -0.016,0.008 -0.028,0.035 -0.028,0.067 0,0.031 0,0.058 0,0.062 0,0.004 0.02,0.031 0.043,0.059 z m 0.785,-0.324 c 0.153,-0.059 0.153,-0.098 0.008,-0.153 -0.121,-0.047 -0.211,0.02 -0.172,0.129 0.028,0.063 0.055,0.067 0.164,0.024 z m 1.864,-0.747 c 0.046,-0.003 0.101,-0.023 0.117,-0.046 0.043,-0.059 -0.082,-0.118 -0.172,-0.086 -0.094,0.039 -0.051,0.136 0.055,0.132 z m 0.55,-0.242 c 0.094,0.016 0.196,-0.086 0.164,-0.168 -0.031,-0.078 -0.136,-0.07 -0.211,0.016 -0.074,0.09 -0.058,0.137 0.047,0.152 z m 0.184,-0.519 c 0.168,0.066 0.223,0.051 0.148,-0.047 -0.058,-0.078 -0.238,-0.16 -0.296,-0.137 -0.071,0.027 0.015,0.133 0.148,0.184 z m 0.512,0.761 c 0.113,0 0.152,-0.144 0.07,-0.269 -0.086,-0.125 -0.129,-0.117 -0.164,0.027 -0.035,0.137 0.008,0.242 0.094,0.242 z m -0.024,-0.738 c 0.078,0.035 0.086,0.031 0.11,-0.062 0.023,-0.094 0.015,-0.11 -0.059,-0.141 -0.066,-0.031 -0.09,-0.023 -0.121,0.035 -0.051,0.09 -0.035,0.125 0.07,0.168 z"
           style="fill:#aa8800;fill-opacity:1;fill-rule:nonzero;stroke:none"
           transform="scale(1.3333333)"
           clip-path="url(#clipPath2631)"
           id="path2652" />
        <path
           d="m 27.867,141.988 c 0.133,-1.621 -1.168,-6.511 -1.168,-6.511 -1.121,0.214 -2.051,0.199 -4.301,0.113 -2.031,-0.078 -2.902,0.078 -2.902,0.078 -0.762,0.57 -1.766,1.242 -1.766,1.242 0.969,0.078 1.485,-0.008 3.875,0.168 2.184,0.16 3.629,0.227 3.629,0.227 0.266,1.172 0.481,2.523 0.43,3.898 -0.043,1.27 -0.332,2.235 -0.332,2.235 -0.336,-0.032 -0.727,-0.075 -1.168,-0.133 -0.445,-0.078 -0.902,-0.176 -1.359,-0.297 -1.953,-0.653 -3.703,-1.453 -3.707,-1.985 -0.004,-0.347 0.129,-0.718 0.871,-1.062 0.793,-0.371 1.242,-0.789 1.383,-1.191 0.097,-0.266 -0.317,-0.551 -1.137,-0.942 -0.11,-0.078 -0.254,-0.156 -0.43,-0.242 -0.183,-0.086 -0.406,-0.184 -0.683,-0.305 -1.04,0.43 -2.84,1.008 -2.84,1.008 0.383,0.098 0.73,0.195 1.019,0.285 0.758,0.258 1.153,0.539 1.098,0.906 -0.047,0.317 -0.145,0.668 -0.734,0.899 -1.247,0.492 -1.036,1.433 -0.938,1.73 0.195,0.575 2.809,2.215 6.731,2.653 3.917,0.433 4.292,-1.157 4.429,-2.774 z"
           style="fill:#800000;fill-opacity:1;fill-rule:nonzero;stroke:none"
           transform="scale(1.3333333)"
           clip-path="url(#clipPath2632)"
           id="path2653" />
        <path
           d="m 37.098,135.562 c -0.293,-1.183 -1.133,-4.187 -2.063,-6.757 -0.992,-2.75 -2.086,-4.778 -2.086,-4.778 -0.258,-0.472 -0.488,-0.824 -0.679,-1.062 -0.208,-0.27 -0.458,-0.535 -0.743,-0.805 -0.379,-0.305 -0.933,-0.586 -1.652,-0.824 -0.18,-0.074 -0.48,-0.148 -0.887,-0.219 0.016,0.215 0.02,0.395 0.012,0.539 -0.008,0.145 -0.027,0.274 -0.051,0.395 -0.074,0.652 -0.308,1.004 -0.707,1.047 -0.332,0.035 -0.887,-0.239 -1.578,-0.684 -0.164,-0.094 -0.309,-0.184 -0.437,-0.273 -0.145,-0.106 -0.274,-0.2 -0.395,-0.278 -0.18,-0.082 -0.383,0.203 -0.812,0.575 -0.438,0.367 -0.899,0.656 -1.137,1.054 -0.348,0.516 -0.278,1.199 0.191,2.32 0.278,0.672 0.813,1.622 1.641,2.829 0.73,1.07 1.59,2.218 2.547,3.285 -0.184,0.25 -0.563,0.726 -0.563,0.726 -0.371,0.594 -0.418,1.336 -0.304,2.09 0.027,0.176 0.043,0.313 0.05,0.418 0.039,0.121 0.082,0.27 0.137,0.442 0.242,0.793 0.555,1.332 1.238,1.726 0.496,0.301 1.051,0.426 1.141,0.442 1.039,0.199 2.32,-0.497 2.32,-0.497 -0.289,-0.113 -0.578,-0.269 -0.871,-0.464 -0.293,-0.2 -0.598,-0.422 -0.91,-0.661 -0.629,-0.695 -1.09,-1.71 -1.473,-3.007 -0.195,-0.664 -0.05,-1.075 0.411,-1.329 1.121,-0.601 1.343,-1.812 1.109,-2.882 -0.086,-0.344 -0.18,-0.621 -0.274,-0.832 -0.343,-0.743 -0.863,-1.41 -1.566,-2.039 -0.18,-0.18 -0.477,-0.407 -0.891,-0.688 -0.144,0.574 -0.566,1.606 -0.566,1.606 0.102,0.074 0.188,0.144 0.262,0.203 0.074,0.062 0.222,0.183 0.222,0.183 0.5,0.395 0.868,0.774 1.114,1.168 0.254,0.371 0.468,0.758 0.636,1.164 0.125,0.293 0.192,0.493 0.211,0.59 -0.015,0.027 0,0.094 0.043,0.207 -0.347,-0.402 -0.711,-0.801 -1.086,-1.191 -0.347,-0.379 -0.695,-0.758 -1.047,-1.133 -1.554,-1.809 -2.398,-2.809 -2.679,-3.289 -0.035,-0.031 -0.082,-0.109 -0.133,-0.219 -0.188,-0.402 -0.25,-0.793 -0.203,-1.191 0.008,-0.071 0.008,-0.145 0.012,-0.227 0.011,-0.094 0.035,-0.187 0.062,-0.289 0.164,0.106 0.316,0.211 0.449,0.317 0.145,0.089 0.274,0.168 0.387,0.222 0.734,0.473 1.305,0.84 1.711,0.996 0.5,0.153 0.934,0.071 1.281,-0.343 0.055,-0.11 0.125,-0.207 0.215,-0.297 0.07,-0.118 0.133,-0.239 0.184,-0.36 0.269,0.055 0.5,0.129 0.695,0.223 0.551,0.262 0.918,0.555 1.094,0.898 1.64,3.118 3.015,6.696 3.894,9.942 0.699,2.582 0.672,2.984 0.672,2.984 0.625,-0.496 1.055,-1.265 1.852,-1.973 z"
           style="fill:#800000;fill-opacity:1;fill-rule:nonzero;stroke:none"
           transform="scale(1.3333333)"
           clip-path="url(#clipPath2633)"
           id="path2654" />
        <path
           d="m 22.961,126.309 c -0.52,0 -0.555,0.949 -0.813,1.398 -0.257,0.445 -1.07,0.949 -0.812,1.398 0.129,0.223 0.402,0.223 0.707,0.168 v 9.133 c 0,0 -0.133,0.145 -0.172,0.215 -0.262,0.449 -0.812,1.172 -0.449,1.535 0.16,0.16 0.379,0.086 0.621,-0.043 v 28.184 c -0.305,-0.055 -0.578,-0.055 -0.707,0.168 -0.258,0.449 0.555,0.953 0.812,1.398 0.258,0.449 0.293,1.403 0.813,1.399 0.519,0.004 0.551,-0.95 0.812,-1.399 0.258,-0.445 1.071,-0.949 0.809,-1.398 -0.129,-0.223 -0.398,-0.223 -0.703,-0.168 v -28.184 c 0.238,0.129 0.461,0.203 0.621,0.043 0.363,-0.363 -0.199,-1.164 -0.449,-1.535 -0.067,-0.098 -0.172,-0.277 -0.172,-0.277 v -9.071 c 0.305,0.055 0.574,0.055 0.703,-0.168 0.262,-0.449 -0.551,-0.953 -0.809,-1.398 -0.261,-0.449 -0.293,-1.398 -0.812,-1.398 z"
           style="fill:#aa8800;fill-opacity:0.937255;fill-rule:nonzero;stroke:none"
           transform="scale(1.3333333)"
           clip-path="url(#clipPath2634)"
           id="path2655" />
        <path
           d="m 26.516,132.93 c -0.098,-0.071 -0.305,-0.207 -0.305,-0.207 -0.117,-0.071 -0.227,-0.141 -0.332,-0.211 -0.496,-0.285 -1.063,-0.586 -1.481,-0.785 -0.625,-0.297 -1.101,-0.461 -1.535,-0.461 -0.062,0 -0.179,0 -0.179,0 -0.051,0 -0.11,0.011 -0.176,0.027 -0.406,0.082 -0.778,0.336 -1.289,0.711 -0.367,0.258 -0.817,0.57 -1.336,0.934 -0.102,0.074 -0.199,0.152 -0.285,0.226 -0.102,0.074 -0.203,0.148 -0.305,0.223 0.055,0.078 0.113,0.156 0.176,0.226 0.062,0.071 0.136,0.145 0.226,0.223 0.367,0.324 0.821,0.547 1.297,0.625 0.102,0.016 0.199,0.023 0.285,0.019 0.399,0.008 0.938,-0.175 1.426,-0.601 0.074,-0.078 0.156,-0.164 0.242,-0.262 0.082,-0.113 0.18,-0.238 0.282,-0.371 -0.106,0.117 -0.227,0.223 -0.368,0.316 -0.281,0.208 -0.519,0.297 -0.675,0.282 -0.594,-0.051 -1.094,-0.391 -1.45,-0.934 -0.019,-0.062 -0.031,-0.129 -0.031,-0.187 -0.019,-0.067 -0.039,-0.129 -0.055,-0.192 0.145,-0.09 0.266,-0.14 0.375,-0.148 0.336,-0.094 0.649,-0.137 0.969,-0.121 0.231,0.011 0.512,0.078 0.887,0.203 0.355,0.125 0.73,0.273 1.129,0.445 0.597,0.246 1.133,0.559 1.578,0.949 0.137,0.129 0.305,0.301 0.492,0.5 0.195,-0.496 0.324,-1 0.438,-1.429 z"
           style="fill:#800000;fill-opacity:1;fill-rule:nonzero;stroke:none"
           transform="scale(1.3333333)"
           clip-path="url(#clipPath2635)"
           id="path2656" />
        <path
           id="path2657"
           style="fill:url(#linearGradient2641);stroke:none;stroke-width:1.33333"
           d="m 28.453125,120.10416 c -15.471145,0.34082 -30.7464999,6.04161 -42.664374,15.9112 -13.160521,10.75978 -22.19123,26.44004 -24.789827,43.24808 -2.599679,16.16344 0.626437,33.20997 9.108358,47.22862 9.183012,15.42943 24.4958556,27.09499 41.861304,31.71025 17.049687,4.65302 35.845233,2.53126 51.384684,-5.90873 15.396661,-8.23413 27.486706,-22.41961 33.143604,-38.94132 6.135586,-17.60656 4.884816,-37.65101 -3.493242,-54.31814 -7.845719,-15.88816 -21.93142,-28.56756 -38.579067,-34.65184 -8.284057,-3.06051 -17.145357,-4.49647 -25.97144,-4.27812 z m 1.781249,5.8698 c 14.670806,-0.0563 29.281214,5.15606 40.597631,14.49353 12.535405,10.19051 20.983845,25.2574 23.04459,41.28872 2.034583,14.93992 -1.348855,30.56029 -9.511018,43.25196 -8.782802,13.8505 -23.039071,24.12833 -39.009398,27.92356 -16.096926,3.93768 -33.69922,1.35173 -47.9035017,-7.21554 -14.3528833,-8.48381 -25.1293643,-22.771 -29.3125403,-38.91372 -4.242533,-16.0289 -2.046888,-33.67555 6.166376,-48.09835 8.142401,-14.55578 22.1598044,-25.70092 38.216129,-30.25102 5.749808,-1.65034 11.730607,-2.47747 17.711732,-2.47914 z" />
      </g>
    </g>
  </g>
</svg>
