<?xml version="1.0" encoding="UTF-8" standalone="no"?>
<!-- Created with Inkscape (http://www.inkscape.org/) -->

<svg
   width="59.266659mm"
   height="98.954178mm"
   viewBox="0 0 59.266657 98.954177"
   version="1.1"
   id="svg1"
   xml:space="preserve"
   sodipodi:docname="mat.svg"
   xmlns:inkscape="http://www.inkscape.org/namespaces/inkscape"
   xmlns:sodipodi="http://sodipodi.sourceforge.net/DTD/sodipodi-0.dtd"
   xmlns="http://www.w3.org/2000/svg"
   xmlns:svg="http://www.w3.org/2000/svg"><sodipodi:namedview
     id="namedview1"
     pagecolor="#ffffff"
     bordercolor="#000000"
     borderopacity="0.25"
     inkscape:showpageshadow="2"
     inkscape:pageopacity="0.0"
     inkscape:pagecheckerboard="0"
     inkscape:deskcolor="#d1d1d1"
     inkscape:document-units="mm"><inkscape:page
       x="0"
       y="0"
       width="59.266659"
       height="98.954178"
       id="page2"
       margin="0"
       bleed="0" /></sodipodi:namedview><defs
     id="defs1" /><path
     id="rect5-3"
     style="opacity:0.5;fill:#666666;fill-opacity:1;stroke:none;stroke-width:0.673143;stroke-linecap:round;stroke-linejoin:round"
     d="M 5.05034,0 C 2.2524,0 0,2.252405 0,5.050338 v 88.853493 c 0,2.79793 2.2524,5.05034 5.05034,5.05034 h 49.165981 c 2.79793,0 5.05034,-2.25241 5.05034,-5.05034 V 5.050338 C 59.266661,2.252405 57.014251,0 54.216321,0 Z m 24.582991,31.414621 c 9.90697,0 17.94103,8.090474 17.94103,18.062464 0,9.971986 -8.03406,18.062466 -17.94103,18.062466 -9.90696,0 -17.94154,-8.09048 -17.94154,-18.062466 0,-9.97199 8.03458,-18.062464 17.94154,-18.062464 z m 0,0.500228 c -9.63489,0 -17.44131,7.858626 -17.44131,17.562236 0,9.703606 7.80642,17.562756 17.44131,17.562756 9.6349,0 17.44132,-7.85915 17.44132,-17.562756 0,-9.70361 -7.80642,-17.562236 -17.44132,-17.562236 z m 0.23461,2.283582 c 0.0659,0.4987 0.0175,1.386739 0.2589,1.443839 0.17787,0.45401 0.18037,0.637659 0.10697,0.664559 0.41702,0.06623 0.51433,0.22458 0.48163,0.43925 -0.047,0.30826 -0.53568,0.396388 -0.8475,0.396358 -0.31493,-4e-5 -0.81146,-0.0887 -0.85576,-0.400492 -0.0294,-0.20689 0.47129,-0.413412 0.47129,-0.413412 -0.092,-0.0361 -0.0389,-0.295132 0.0868,-0.665592 0.28766,-0.08315 0.22046,-0.90789 0.29766,-1.46451 z m 0.0248,2.320788 a 0.42533442,0.21632128 0 0 0 -0.42529,0.216524 0.42533442,0.21632128 0 0 0 0.42529,0.216525 0.42533442,0.21632128 0 0 0 0.4253,-0.216525 0.42533442,0.21632128 0 0 0 -0.4253,-0.216524 z m -0.1111,0.884184 c 0.0443,-0.0033 0.0837,-0.003 0.11782,0 0,0 0.0737,0.0063 0.11472,0.01033 0.27483,0.02737 0.53839,0.128644 0.79737,0.283704 0.19021,0.11476 0.34881,0.237629 0.50643,0.365869 0.0277,0.0278 0.0586,0.05545 0.0925,0.08165 0,0 0.0557,0.05051 0.0837,0.07441 -0.16494,0.13037 -0.39023,0.277407 -0.62012,0.428397 -0.0282,-0.0757 -0.0541,-0.138035 -0.0801,-0.189135 -0.0921,-0.15078 -0.25561,-0.291364 -0.50229,-0.409794 -0.16544,-0.08168 -0.33588,-0.151956 -0.51367,-0.208256 -0.18606,-0.0567 -0.34259,-0.08595 -0.47077,-0.09095 -0.18007,-0.0068 -0.36107,0.01463 -0.54725,0.05943 -0.0588,0.0052 -0.12629,0.02786 -0.20309,0.06666 0.008,0.0228 0.0173,0.04615 0.0253,0.06925 4e-4,0.0229 0.005,0.04585 0.0145,0.06925 0.17788,0.19187 0.40648,0.302494 0.66197,0.317294 0.0687,0.004 0.18059,-0.0291 0.34004,-0.0987 0.0787,-0.03169 0.15424,-0.06627 0.22634,-0.10387 -0.0739,0.04362 -0.13815,0.08524 -0.19275,0.12454 -0.0529,0.0332 -0.10085,0.06408 -0.14315,0.09198 -0.26759,0.14959 -0.47457,0.226544 -0.64182,0.232544 -0.0354,0.0034 -0.0743,0.0035 -0.11679,5.17e-4 -0.19407,-0.01477 -0.40755,-0.08129 -0.61857,-0.192236 -0.0505,-0.0274 -0.0958,-0.0539 -0.1359,-0.0801 -0.0402,-0.0262 -0.078,-0.05508 -0.11318,-0.08578 0.0532,-0.0267 0.10562,-0.0546 0.15762,-0.0832 0.0442,-0.0291 0.0921,-0.05868 0.14314,-0.08888 0.27334,-0.15222 0.48573,-0.275613 0.72761,-0.387573 0.32066,-0.15482 0.6128,-0.245249 0.89038,-0.257349 z m -0.86661,1.342037 c 0,0 0.11656,0.06358 0.17466,0.09508 0.23316,0.16894 0.33179,0.33171 0.31109,0.49506 0,0 -0.004,0.03028 -0.006,0.04547 -0.0247,0.13482 -0.21308,0.413666 -0.45733,0.858346 -0.10222,0.1816 -0.12999,0.337134 -0.10129,0.480074 0.008,0.0415 0.0181,0.07227 0.0289,0.09147 0.081,0.23202 0.23912,0.476881 0.41186,0.675411 0.2421,0.26418 0.38493,0.362681 0.51315,0.341581 0.0439,0.0034 0.11323,-0.04736 0.21807,-0.15813 0.11843,-0.11543 0.18504,-0.185638 0.18604,-0.201538 0,0 0.0221,-1.370637 0.17156,-2.134237 0,0 0.6977,-0.368394 1.02165,-0.551904 0,0 -0.14896,1.483603 -0.29559,2.150773 0,0 -0.43185,0.267588 -0.61547,0.375688 0.0778,-0.0062 0.13914,-0.01944 0.17674,-0.03204 0.12164,-0.0276 0.20926,-0.04787 0.26096,-0.04858 0.0514,-6e-4 0.10141,0.0065 0.15141,0.0155 0.0462,0.0124 0.0651,0.01659 0.0532,0.02739 -0.28313,0.262748 -0.48356,0.45697 -0.76687,0.719853 0.006,-0.04326 -0.0208,-0.08699 -0.0744,-0.135392 -0.0793,-0.0406 -0.1839,-0.05149 -0.29559,-0.01809 -0.12741,0.03808 -0.23617,0.141591 -0.35244,0.324011 -0.11534,0.16229 -0.16919,0.234284 -0.16019,0.234094 -0.0171,3.7e-4 -0.0609,-0.03621 -0.15452,-0.137976 -0.12181,-0.12617 -0.2807,-0.327033 -0.40617,-0.491443 -0.18839,-0.24649 -0.37504,-0.500609 -0.45424,-0.701249 -0.0608,-0.15417 -0.0546,-0.286363 0.0377,-0.422713 0.19144,-0.32213 0.32846,-0.554257 0.32246,-0.652157 0.007,-0.023 0.009,-0.04081 0.009,-0.05271 0,0 -0.001,-0.02766 -0.001,-0.03566 -0.008,-0.17464 -0.105,-0.345408 -0.31264,-0.516248 -0.0332,-0.0283 -0.0747,-0.06045 -0.12506,-0.09715 -0.0505,-0.03672 -0.10978,-0.0747 -0.17828,-0.114204 0,0 0.46763,-0.274988 0.70952,-0.428398 z m 2.9347,3.094901 c 0.14319,0.0243 0.24853,0.0516 0.31213,0.077 0.25157,0.0837 0.44732,0.183925 0.57929,0.291455 0.10073,0.09419 0.18818,0.188287 0.26148,0.283187 0.0667,0.08428 0.14833,0.208501 0.23823,0.375171 0,0 0.38494,0.715149 0.73329,1.685169 0.32576,0.907154 0.62102,1.966564 0.72398,2.38435 v 5.17e-4 c -0.27882,0.24895 -0.42973,0.519818 -0.64905,0.695048 0,0 0.009,-0.141429 -0.23668,-1.052649 -0.3083,-1.14531 -0.79123,-2.407526 -1.36736,-3.507796 -0.0631,-0.12053 -0.19051,-0.22436 -0.38447,-0.31626 -0.0692,-0.0337 -0.15055,-0.05916 -0.24495,-0.07906 -0.0173,0.04265 -0.0387,0.08531 -0.0646,0.126607 -0.0313,0.03168 -0.0561,0.0663 -0.0749,0.104904 -0.12205,0.14592 -0.27391,0.175456 -0.4501,0.121956 -0.14191,-0.05502 -0.34318,-0.18509 -0.601,-0.3514 -0.0394,-0.0205 -0.0853,-0.04707 -0.13642,-0.07906 -0.0461,-0.03618 -0.0991,-0.07464 -0.15658,-0.112138 -0.0101,0.03623 -0.0177,0.07014 -0.0227,0.102836 -0.001,0.0288 -0.002,0.05528 -0.004,0.07958 -0.0164,0.14007 0.006,0.27916 0.0713,0.42013 0.0182,0.0393 0.0341,0.06573 0.047,0.07803 0.0984,0.16817 0.39476,0.521629 0.94103,1.159619 0.12258,0.13253 0.24498,0.266029 0.3669,0.399459 0.13238,0.13869 0.26003,0.278829 0.38241,0.420129 -0.0156,-0.0395 -0.021,-0.06283 -0.016,-0.07183 -0.006,-0.0347 -0.0302,-0.104983 -0.0734,-0.208773 -0.0595,-0.14291 -0.13438,-0.279771 -0.22428,-0.410311 -0.0857,-0.1392 -0.21464,-0.272601 -0.39067,-0.411861 0,0 -0.0516,-0.0431 -0.0775,-0.0646 -0.0259,-0.0215 -0.0569,-0.04575 -0.093,-0.07235 0,0 0.14808,-0.363087 0.19998,-0.565857 0.14512,0.09889 0.24895,0.179362 0.31265,0.242362 0.24679,0.22119 0.42898,0.456936 0.54932,0.719336 0.0341,0.07428 0.0666,0.172232 0.0966,0.293522 0.082,0.37666 0.005,0.804822 -0.38964,1.016992 -0.1625,0.08924 -0.21318,0.234806 -0.14418,0.468706 0.13508,0.4578 0.29635,0.815 0.51728,1.0604 0.11043,0.08454 0.21745,0.162844 0.31988,0.232544 0.10246,0.06971 0.20425,0.124531 0.3054,0.164331 0,0 -0.45,0.245483 -0.8139,0.175183 -0.0323,-0.0058 -0.22694,-0.04984 -0.40153,-0.155546 -0.24051,-0.13989 -0.34888,-0.329838 -0.43408,-0.608748 -0.0192,-0.06104 -0.0355,-0.113397 -0.0481,-0.157097 -0.004,-0.03685 -0.01,-0.08534 -0.0186,-0.146244 -0.0399,-0.26682 -0.0227,-0.528419 0.10646,-0.737939 0,0 0.13373,-0.167915 0.19843,-0.256315 -0.3363,-0.37579 -0.63818,-0.781343 -0.894,-1.159103 -0.29199,-0.4249 -0.47912,-0.760855 -0.57722,-0.997355 -0.1639,-0.39533 -0.18906,-0.636208 -0.0667,-0.818038 0.0828,-0.14097 0.24506,-0.242414 0.39945,-0.373104 0.15088,-0.12999 0.22184,-0.230438 0.28474,-0.201538 0.0424,0.028 0.0883,0.06058 0.13798,0.09818 0.046,0.0308 0.0974,0.0626 0.15399,0.0956 0.24316,0.15713 0.43826,0.254129 0.55501,0.241329 0.13984,-0.01529 0.22235,-0.139407 0.24805,-0.369487 0.008,-0.04212 0.0146,-0.08861 0.0176,-0.139009 0.003,-0.0503 0.002,-0.11447 -0.004,-0.19017 z m -3.90002,0.178801 c 0.0354,0 0.0683,0.0022 0.0977,0.0052 0.0294,0.0032 0.0627,0.0059 0.10025,0.01085 0.23657,0.03001 0.52909,0.107846 0.83406,0.260966 0.22376,0.11267 0.4463,0.261668 0.64544,0.449068 0.0353,0.0375 0.074,0.07807 0.11627,0.122473 0.0332,0.03949 0.0654,0.07972 0.0966,0.120923 h -5.2e-4 c -0.28936,-0.03079 -0.56983,-0.0082 -0.86248,0.07183 -2e-4,-0.09153 -0.009,-0.164592 -0.0238,-0.221692 -0.0599,-0.17628 -0.22362,-0.335226 -0.45785,-0.457336 -0.1553,-0.08252 -0.31224,-0.142718 -0.4656,-0.182418 -0.15939,-0.0402 -0.29106,-0.05264 -0.3912,-0.05064 -0.14217,0.0028 -0.28232,0.02691 -0.42478,0.07131 -0.0449,0.0096 -0.0977,0.02993 -0.16019,0.06253 0.004,0.0113 0.007,0.02369 0.0103,0.03669 -0.004,0.0141 -0.005,0.02819 -0.003,0.04289 0.10214,0.11266 0.22689,0.191316 0.46147,0.192236 0.0614,2e-4 0.16717,-0.03515 0.32504,-0.09095 0.076,-0.0249 0.14884,-0.04948 0.21704,-0.07338 -0.0703,0.0283 -0.1347,0.05945 -0.1912,0.09095 -0.0539,0.0266 -0.10384,0.05315 -0.14934,0.07855 -0.28933,0.14039 -0.50899,0.246285 -0.66973,0.276985 -0.0339,0.0085 -0.0694,0.01457 -0.10594,0.01757 -0.17105,0.01422 -0.31214,-0.0194 -0.42581,-0.0863 -0.0262,-0.0166 -0.0484,-0.03256 -0.0667,-0.04806 -0.0184,-0.0155 -0.0337,-0.03296 -0.0465,-0.05116 0.0555,-0.03785 0.10976,-0.07455 0.16226,-0.109554 0.0466,-0.0336 0.0947,-0.06629 0.14366,-0.09819 0.24548,-0.15543 0.43377,-0.256628 0.59376,-0.321428 0.22454,-0.09361 0.42038,-0.125889 0.64079,-0.119889 z m -1.50792,1.057816 c 0.0459,0.0072 0.0862,0.01532 0.11989,0.02532 0.0385,0.0024 0.0712,0.009 0.0987,0.02015 0.13289,0.06437 0.22006,0.14928 0.24856,0.25063 0.009,0.0948 -0.005,0.194377 -0.0429,0.299207 -0.0299,0.10475 -0.0801,0.229685 -0.14986,0.380855 0,0 -0.15887,0.329157 -0.31367,0.776697 -0.17112,0.49477 -0.2674,0.933901 -0.3235,1.311031 -0.001,0.0094 0.12291,0.06386 0.37414,0.156063 0.0718,0.0324 0.13043,0.06177 0.17673,0.08837 0.0557,0.0166 0.10483,0.04196 0.14883,0.07596 0.045,0.0256 0.0927,0.05857 0.14211,0.09767 0.0503,0.03111 0.10545,0.07202 0.16485,0.120923 0.0324,0.02311 0.0899,0.06559 0.16175,0.11989 0,0 0.0156,-0.396614 0.17673,-1.075904 0.18118,-0.76406 0.46812,-1.409761 0.75396,-1.946651 0,0 0.81553,-0.301209 1.22835,-0.314709 0,0 -0.4157,0.414013 -0.91571,1.341003 -0.47745,0.88519 -0.65331,2.043323 -0.76119,2.363163 -0.17302,0.13525 -0.39823,0.242782 -0.72399,0.341582 0.0134,0.0046 -0.002,-0.01813 -0.0419,-0.06873 -0.031,-0.05564 -0.0868,-0.125851 -0.15348,-0.183451 -0.0878,-0.07465 -0.23943,-0.154914 -0.46974,-0.247014 -0.0406,-0.0207 -0.0897,-0.04023 -0.14779,-0.05943 -0.0499,-0.0208 -0.11145,-0.04325 -0.18655,-0.06925 0,0 -0.0188,0.556015 -0.0315,0.679545 0,0 -0.6118,0.336076 -0.78238,0.399976 -0.005,-0.0141 -0.009,-0.02784 -0.0119,-0.04134 -0.003,-0.0135 -0.007,-0.02666 -0.0108,-0.03876 -0.0396,-0.11909 -0.14167,-0.328504 -0.19637,-0.428914 -0.0242,-0.04198 -0.0494,-0.08323 -0.0811,-0.136426 -0.0253,-0.04741 -0.0615,-0.113384 -0.0961,-0.181384 -0.0142,-0.029 -0.0286,-0.05747 -0.0444,-0.08837 -0.0167,-0.03665 -0.035,-0.07584 -0.0522,-0.115239 -0.002,-0.05739 0.006,-0.105125 0.015,-0.133325 0.024,-0.10948 0.0732,-0.201665 0.11885,-0.254765 0.0726,-0.09877 0.16803,-0.186064 0.27699,-0.254764 0.008,-0.0102 0.0298,-0.02683 0.0677,-0.05013 0,0 0.0284,-0.319447 0.13952,-0.759127 0.12287,-0.48601 0.29757,-0.924687 0.48215,-1.303797 0.0524,-0.10744 0.0704,-0.18903 0.0537,-0.24753 -0.019,-0.0664 -0.0572,-0.09881 -0.11524,-0.0987 -0.058,0 -0.1,-0.0017 -0.12816,-0.0057 0,0 0.56048,-0.522918 0.83199,-0.744658 z m 3.29127,0.594279 c 0.18238,0 0.19354,0.33557 0.28474,0.49351 0.0912,0.15796 0.37645,0.336077 0.28525,0.494027 -0.0451,0.0781 -0.14069,0.07853 -0.24753,0.05943 v 0.790133 c 0.0591,0.02308 0.11445,0.04233 0.18242,0.07493 0.14661,0.0709 0.34556,0.176333 0.51987,0.277503 0.0367,0.0249 0.0751,0.04918 0.11627,0.07338 0,0 0.0728,0.04876 0.108,0.07286 l -5.1e-4,5.17e-4 c -0.0399,0.15152 -0.0858,0.329995 -0.154,0.505395 -0.0659,-0.07065 -0.1244,-0.13125 -0.1726,-0.17725 -0.15658,-0.13713 -0.34484,-0.247546 -0.55397,-0.334346 -0.0161,-0.0069 -0.0296,-0.01138 -0.0455,-0.01809 v 0.974101 c 0.40421,0.008 0.70974,0.0025 0.99012,-0.05116 0,0 0.45823,1.725321 0.41083,2.296501 -0.0454,0.54705 -0.18075,1.078044 -1.40095,0.98702 v 0.552423 c 0.74597,-0.16244 1.41535,-0.741253 1.603,-0.732257 0.21486,0.01028 0.57714,0.199534 0.71572,0.272334 0.57821,0.284913 0.96104,0.609803 1.18753,0.840263 0.174,0.18425 0.31391,0.35372 0.42374,0.49971 0.0974,0.12864 0.22383,0.31071 0.33745,0.51263 0,0 0.59049,0.88008 0.37259,1.93683 -0.24366,1.18164 -1.32101,2.18266 -1.98696,3.14296 -0.77637,0.42916 -1.26264,0.79299 -1.78697,1.39682 0,0 0.0119,-0.2842 0.11523,-0.77722 0.1346,-0.64214 0.276,-1.0562 0.53279,-2.01486 0.52024,-1.94238 1.08563,-2.63173 0.50953,-3.81062 -0.30941,-0.63315 -0.61062,-1.0965 -1.22473,-0.83096 -0.24127,0.0691 -0.51834,0.10317 -0.79892,0.12454 v 7.18199 c 0.10683,-0.0191 0.20191,-0.0187 0.24701,0.0594 0.0912,0.15796 -0.19353,0.33557 -0.28473,0.49351 -0.0912,0.15796 -0.10235,0.49403 -0.28474,0.49403 -0.18238,10e-6 -0.19406,-0.33607 -0.28526,-0.49403 -0.0912,-0.15795 -0.37593,-0.33557 -0.28473,-0.49351 0.0451,-0.0781 0.14017,-0.0785 0.24701,-0.0594 v -7.1577 c -0.21934,-8.1e-4 -0.43126,-0.006 -0.6134,-0.0145 -1.0522,-0.0493 -1.96899,-0.861299 -2.7218,-0.21136 -0.782,0.53816 -1.04207,1.39334 -0.24649,1.92443 0,0 0.34665,0.1794 0.54467,0.2775 0.21936,0.0958 0.19662,0.16404 0.53123,0.25374 0.33461,0.0897 0.0883,-0.54887 -0.12867,-0.79582 -0.2366,-0.24661 -0.5548,-0.32382 -0.88729,-0.36432 0,0 0.17385,-0.22125 0.46406,-0.46871 0.31926,-0.27221 0.67044,-0.48883 1.01285,-0.66352 0.29302,0.0714 0.51989,0.14926 0.63149,0.21446 0.48915,0.22788 0.77822,0.50933 0.79892,0.82269 0.006,0.0902 -0.0344,0.20596 -0.11472,0.35811 -0.30099,0.48243 -1.30178,1.06502 -2.02779,1.91255 -0.28931,0.34071 -0.27765,0.70123 -0.10542,1.02784 0.34882,0.66146 0.80621,1.18597 1.24024,1.49345 0.1913,0.0754 0.38688,0.15826 0.58291,0.24856 0.19577,0.0902 0.39024,0.16775 0.58394,0.23255 0,0 -0.0723,0.29726 -0.14314,0.64957 -0.0806,0.40109 -0.1409,0.69897 -0.2465,0.97979 -0.0225,0.0921 -0.18993,0.0359 -0.5302,-0.21033 -0.38794,-0.26118 -0.7566,-0.67654 -1.10587,-1.15031 -0.0794,-0.10686 -0.13944,-0.18724 -0.19224,-0.25994 0,0 -0.0955,-0.15955 -0.15555,-0.25735 -0.2668,-0.43457 -0.4917,-0.92553 -0.5333,-1.44642 0,0 0.003,-0.47272 0.0382,-0.71779 -0.48145,-0.23547 -0.8541,-0.52548 -1.12396,-0.86971 -0.31033,-0.38569 -0.44025,-0.81191 -0.43925,-1.21388 0.002,-0.61344 0.19084,-1.53596 0.69091,-2.0531 0.86832,-0.910423 2.86159,-1.005865 3.14761,-0.942065 0.39393,0.08783 0.53656,0.515895 1.04852,0.654745 v -0.632007 c -1.10148,-0.216479 -1.81371,-0.682165 -1.87275,-0.858862 -0.035,-0.10476 -0.10889,-0.436956 0.32762,-0.610816 0.20792,-0.08102 0.2422,-0.205766 0.2589,-0.316776 0.0195,-0.12959 -0.11965,-0.229277 -0.38602,-0.319877 -0.101,-0.0326 -0.22315,-0.06577 -0.3576,-0.100769 0,0 0.63308,-0.203671 0.99787,-0.356051 0.0965,0.04262 0.17495,0.0774 0.23875,0.108004 0.0629,0.0301 0.11393,0.05795 0.15193,0.08475 0.28809,0.13759 0.43365,0.239496 0.39945,0.332796 -0.0502,0.14194 -0.20757,0.28864 -0.48524,0.42013 -0.26071,0.12154 -0.30777,0.252671 -0.30696,0.375171 0.001,0.161358 0.46666,0.393251 1.03405,0.601513 v -0.922906 c -0.0842,0.0451 -0.16157,0.07159 -0.21807,0.01499 -0.12752,-0.12753 0.0658,-0.383492 0.15813,-0.541052 0.0143,-0.0245 0.0599,-0.07596 0.0599,-0.07596 v -0.459404 c -0.0844,-0.0059 -0.0611,-0.003 -0.15348,-0.0098 -0.83915,-0.0617 -1.02014,-0.0305 -1.36116,-0.0584 0,0 0.35349,-0.236986 0.62115,-0.438216 0,0 0.29764,-0.04135 0.89349,-0.02739 v -0.45527 c -0.097,0.04329 -0.19035,0.06523 -0.26872,0.06356 -0.0303,10e-4 -0.0639,-0.0012 -0.0997,-0.0072 -0.16754,-0.02725 -0.32643,-0.106235 -0.4563,-0.219625 -0.0306,-0.0277 -0.0568,-0.05397 -0.0791,-0.07906 -0.0224,-0.0252 -0.0425,-0.0518 -0.061,-0.0801 0.0344,-0.0257 0.0709,-0.05213 0.10645,-0.07803 0.031,-0.0269 0.0638,-0.0533 0.0997,-0.0801 0.18256,-0.12768 0.34068,-0.238895 0.46974,-0.329695 0.11021,-0.08156 0.20119,-0.139088 0.28887,-0.183968 v -0.778764 c -0.10684,0.0191 -0.20191,0.01867 -0.24701,-0.05943 -0.0912,-0.15794 0.19353,-0.336077 0.28473,-0.494027 0.0912,-0.15795 0.10289,-0.49351 0.28526,-0.49351 z m -0.34054,2.100647 c -0.11164,-0.0057 -0.22236,0.0099 -0.34055,0.04341 -0.0382,0.0022 -0.0814,0.02031 -0.13178,0.05271 0.006,0.0221 0.0136,0.04426 0.0196,0.06666 9e-4,0.0218 0.005,0.04406 0.0109,0.06666 0.11529,0.175688 0.27345,0.287048 0.45941,0.318843 v -0.544153 c -0.005,-3.55e-4 -0.013,-0.0039 -0.0176,-0.0041 z m -4.25763,0.851111 c -0.0151,-0.0024 -0.0376,-0.0014 -0.0672,0.0016 -0.052,0.0055 -0.0913,0.01339 -0.1204,0.02429 -0.029,0.0023 -0.054,0.0076 -0.0749,0.01757 0,0 6.2e-4,0.03321 0.001,0.04961 0.0331,0.01571 0.0851,0.08578 0.17466,0.204638 0.0124,0.0146 0.0253,0.03685 0.0388,0.06615 0.0196,0.0286 0.0427,0.06005 0.0698,0.09405 -0.006,-0.13525 -0.005,-0.282056 5.2e-4,-0.441316 3.5e-4,-0.0086 -0.007,-0.01414 -0.0222,-0.01654 z m 4.92063,0.89762 v 0.397908 c 0,0 0.0365,0.06275 0.0599,0.09715 0.0887,0.13054 0.28567,0.413522 0.15813,0.541052 -0.0565,0.0565 -0.13387,0.03001 -0.21807,-0.01499 v 1.103809 c 0.0329,0.0063 0.0673,0.01621 0.0997,0.0217 0.15589,0.0209 0.29278,0.03616 0.40979,0.04806 0,0 0.10213,-0.340972 0.11783,-0.788582 0.017,-0.4851 -0.0575,-0.962124 -0.15141,-1.376144 0,0 -0.34736,-0.02294 -0.47594,-0.02997 z m -0.12609,12.124836 c 0.0725,-0.001 0.13644,1.1e-4 0.19224,0.003 0,0 0.12014,0.005 0.18604,0.007 0.38413,0.009 0.9077,0.0345 1.28157,0.0605 0.30712,0.0221 0.63514,0.0508 0.96945,0.10646 0.0671,0.0166 0.13877,0.0315 0.21497,0.0455 0.0673,0.0172 0.13474,0.0351 0.20154,0.0532 l 5.2e-4,-5.2e-4 c -0.052,0.27344 -0.1637,0.53177 -0.38654,0.77308 -0.13284,-0.0765 -0.2506,-0.139 -0.3483,-0.185 -0.33051,-0.13808 -0.71029,-0.21174 -1.20923,-0.27854 -0.33884,-0.0474 -0.65039,-0.0951 -0.99115,-0.15296 -0.35589,-0.0584 -0.6323,-0.10871 -0.88005,-0.13901 -0.33333,-0.0408 -0.68908,-0.0721 -1.0573,-0.0811 -0.11651,-0.0136 -0.25305,-0.0102 -0.4129,0.0109 0.0132,0.0313 0.0265,0.0625 0.0398,0.0935 -0.003,0.0282 0.003,0.0576 0.0165,0.0884 0.32955,0.2831 0.82389,0.44866 1.3901,0.49506 0.1463,0.012 0.39324,-0.0102 0.6935,-0.0755 0.14998,-0.0297 0.28559,-0.0647 0.40669,-0.1049 -0.12423,0.0471 -0.23134,0.0869 -0.33124,0.12661 -0.0954,0.0324 -0.18661,0.0619 -0.26821,0.0879 -0.52309,0.13659 -1.04298,0.18691 -1.41955,0.16691 -0.0822,-0.002 -0.17223,-0.008 -0.26923,-0.0191 -0.44825,-0.0504 -0.90186,-0.16424 -1.28313,-0.34055 -0.0906,-0.0432 -0.16831,-0.0853 -0.23461,-0.12557 -0.0664,-0.0404 -0.12651,-0.0836 -0.17931,-0.12971 0.10263,-0.0294 0.20813,-0.0579 0.3147,-0.0853 0.0923,-0.0299 0.1924,-0.0577 0.30076,-0.0837 0.54101,-0.11834 1.07524,-0.19108 1.50017,-0.23358 0.59495,-0.0666 1.12681,-0.0857 1.56218,-0.0827 z m 2.3642,1.30432 c 0.27473,0.01 0.44259,0.0183 0.5457,0.032 0.40607,0.0378 0.63957,0.086 0.77567,0.15606 0.0931,0.0621 0.16244,0.12519 0.21084,0.18759 0.0451,0.0551 0.0883,0.13761 0.1173,0.24236 0,0 0.15724,0.44734 -0.0413,0.9679 -0.21815,0.57185 -0.75798,1.06004 -1.15445,1.51722 h -5.2e-4 c -0.55423,0.19614 -1.15816,0.38693 -1.65726,0.58084 0,0 0.27639,-0.49993 0.66404,-1.0852 0.456,-0.68839 0.62064,-1.18346 0.53744,-1.79628 -0.009,-0.0676 -0.1815,-0.12361 -0.53072,-0.17621 -0.12471,-0.0196 -0.2887,-0.0346 -0.50023,-0.0481 -0.10259,0.0264 -0.21814,0.0521 -0.3483,0.077 -0.13032,0.0189 -0.25272,0.0399 -0.36587,0.0631 -0.56273,0.086 -1.10097,0.10663 -1.53789,0.0749 -0.31794,-0.0321 -0.74949,-0.11861 -1.21077,-0.26717 -0.083,-0.0191 -0.17397,-0.0453 -0.27027,-0.0791 -0.0731,-0.0385 -0.16228,-0.0812 -0.26769,-0.13074 -0.10602,0.0419 -0.1982,0.0813 -0.2775,0.11937 -0.0563,0.0337 -0.11015,0.0644 -0.16175,0.092 -0.30719,0.15946 -0.44538,0.30019 -0.45578,0.41393 -0.003,0.0316 0.005,0.0509 0.0238,0.0589 0.0494,0.13002 0.39136,0.3353 1.13946,0.59066 0.17895,0.0513 0.36047,0.1017 0.54364,0.1509 0.20506,0.0502 0.40079,0.10171 0.58446,0.15451 -0.003,-0.0177 0.007,-0.0296 0.0284,-0.0346 0.0202,-0.0169 0.0272,-0.0486 0.0222,-0.0956 -0.006,-0.0648 -0.0557,-0.12459 -0.1509,-0.18139 -0.0727,-0.062 -0.27063,-0.11678 -0.59014,-0.16898 -0.0454,-0.008 -0.0903,-0.0168 -0.13539,-0.0248 -0.0451,-0.008 -0.10115,-0.0169 -0.16795,-0.0269 0,0 0.94987,-0.24906 1.45624,-0.37775 0.28023,0.053 0.46409,0.0922 0.55759,0.12454 0.39447,0.11052 0.58384,0.22105 0.57154,0.34365 -0.004,0.0348 -0.0435,0.0807 -0.11885,0.13745 -0.29839,0.19777 -1.04207,0.35576 -2.09238,0.56586 -0.40022,0.0808 -0.52669,0.17956 -0.45579,0.29094 0.14042,0.22061 0.43151,0.4007 0.78497,0.51831 0.17201,0.0323 0.34399,0.0669 0.51108,0.10387 0.16718,0.0371 0.33542,0.0707 0.50436,0.10026 0,0 -0.46258,0.37756 -0.62477,0.58187 -0.0192,0.0408 -0.19528,0.008 -0.56482,-0.0961 -0.42637,-0.11133 -0.77687,-0.26054 -1.04749,-0.44493 -0.059,-0.0397 -0.10601,-0.0722 -0.14211,-0.0987 0,0 -0.0565,-0.0614 -0.0909,-0.0987 -0.15382,-0.16666 -0.20618,-0.35408 -0.0305,-0.5209 0,0 0.20518,-0.14296 0.339,-0.21136 -0.48013,-0.11451 -0.87841,-0.24869 -1.19269,-0.401 -0.3636,-0.17114 -0.55967,-0.35125 -0.61547,-0.52762 -0.0892,-0.2818 0.0681,-0.56746 0.67438,-0.7984 0.48186,-0.1966 1.14468,-0.32178 1.9482,-0.41858 0.72169,-0.0891 1.12155,-0.1235 1.23662,-0.0863 0.0735,0.0349 0.14806,0.0722 0.22376,0.11214 0.0772,0.0339 0.16677,0.0682 0.26872,0.1018 0.40356,0.15198 0.79759,0.22314 1.11207,0.22014 0.3796,-0.003 0.75953,-0.0807 1.06195,-0.23978 0.065,-0.0297 0.12635,-0.0631 0.18345,-0.10025 0.057,-0.037 0.11664,-0.0853 0.17364,-0.14469 z" /></svg>
